G04*
G04 #@! TF.GenerationSoftware,Altium Limited,Altium Designer,19.0.15 (446)*
G04*
G04 Layer_Color=8388736*
%FSLAX25Y25*%
%MOIN*%
G70*
G01*
G75*
%ADD17R,0.05717X0.03200*%
%ADD18R,0.06115X0.03599*%
%ADD19C,0.06800*%
%ADD20C,0.06902*%
%ADD21R,0.06902X0.06902*%
%ADD22R,0.04769X0.04769*%
%ADD23C,0.05800*%
D17*
X144700Y240598D02*
D03*
X160400D02*
D03*
X144700Y245598D02*
D03*
X160400D02*
D03*
X144700Y250598D02*
D03*
X160400D02*
D03*
X144700Y255598D02*
D03*
X160400D02*
D03*
X144700Y260598D02*
D03*
X160400D02*
D03*
X144700Y265598D02*
D03*
X160400D02*
D03*
X144700Y270598D02*
D03*
X160400D02*
D03*
X144700Y275598D02*
D03*
X160400D02*
D03*
X144700Y280598D02*
D03*
X160400D02*
D03*
X144700Y285598D02*
D03*
X160400D02*
D03*
X144700Y290598D02*
D03*
X160400D02*
D03*
X144700Y295598D02*
D03*
X160400D02*
D03*
X144700Y300598D02*
D03*
X160400D02*
D03*
X144700Y305598D02*
D03*
X160400D02*
D03*
X144700Y310598D02*
D03*
X160400D02*
D03*
X144700Y315598D02*
D03*
X160400D02*
D03*
X144700Y320598D02*
D03*
X160400D02*
D03*
X144700Y325598D02*
D03*
X160400D02*
D03*
X144700Y330598D02*
D03*
X160400D02*
D03*
X144700Y335598D02*
D03*
X160400D02*
D03*
X144700Y340598D02*
D03*
X160400D02*
D03*
X144700Y345598D02*
D03*
X160400D02*
D03*
X144700Y350598D02*
D03*
X160400D02*
D03*
X144700Y355598D02*
D03*
X160400D02*
D03*
X144700Y360598D02*
D03*
X160400D02*
D03*
X144700Y365598D02*
D03*
X160400D02*
D03*
X144700Y370598D02*
D03*
X160400D02*
D03*
X144700Y375598D02*
D03*
X160400D02*
D03*
X144700Y380598D02*
D03*
X160400D02*
D03*
X144700Y385598D02*
D03*
X160400D02*
D03*
X144700Y390598D02*
D03*
X160400D02*
D03*
X144700Y395598D02*
D03*
X160400D02*
D03*
X144700Y400598D02*
D03*
X160400D02*
D03*
X144700Y405598D02*
D03*
X160400D02*
D03*
X144700Y410598D02*
D03*
X160400D02*
D03*
X144700Y415598D02*
D03*
X160400D02*
D03*
X144700Y420598D02*
D03*
X160400D02*
D03*
X144700Y425598D02*
D03*
X160400D02*
D03*
X144700Y430598D02*
D03*
X160400D02*
D03*
X144700Y435598D02*
D03*
X160400D02*
D03*
X144700Y440598D02*
D03*
X160400D02*
D03*
X144700Y445598D02*
D03*
X160400D02*
D03*
X144700Y450598D02*
D03*
X160400D02*
D03*
X144700Y455598D02*
D03*
X160400D02*
D03*
X144700Y460598D02*
D03*
X160400D02*
D03*
X144700Y465598D02*
D03*
X160400D02*
D03*
X144700Y470598D02*
D03*
X160400D02*
D03*
X144700Y475598D02*
D03*
X160400D02*
D03*
X144700Y480598D02*
D03*
X160400D02*
D03*
X144700Y485598D02*
D03*
X160400D02*
D03*
D18*
X144700Y240600D02*
D03*
X160400D02*
D03*
X144700Y245600D02*
D03*
X160400D02*
D03*
X144700Y250600D02*
D03*
X160400D02*
D03*
X144700Y255600D02*
D03*
X160400D02*
D03*
X144700Y260600D02*
D03*
X160400D02*
D03*
X144700Y265600D02*
D03*
X160400D02*
D03*
X144700Y270600D02*
D03*
X160400D02*
D03*
X144700Y275600D02*
D03*
X160400D02*
D03*
X144700Y280600D02*
D03*
X160400D02*
D03*
X144700Y285600D02*
D03*
X160400D02*
D03*
X144700Y290600D02*
D03*
X160400D02*
D03*
X144700Y295600D02*
D03*
X160400D02*
D03*
X144700Y300600D02*
D03*
X160400D02*
D03*
X144700Y305600D02*
D03*
X160400D02*
D03*
X144700Y310600D02*
D03*
X160400D02*
D03*
X144700Y315600D02*
D03*
X160400D02*
D03*
X144700Y320600D02*
D03*
X160400D02*
D03*
X144700Y325600D02*
D03*
X160400D02*
D03*
X144700Y330600D02*
D03*
X160400D02*
D03*
X144700Y335600D02*
D03*
X160400D02*
D03*
X144700Y340600D02*
D03*
X160400D02*
D03*
X144700Y345600D02*
D03*
X160400D02*
D03*
X144700Y350600D02*
D03*
X160400D02*
D03*
X144700Y355600D02*
D03*
X160400D02*
D03*
X144700Y360600D02*
D03*
X160400D02*
D03*
X144700Y365600D02*
D03*
X160400D02*
D03*
X144700Y370600D02*
D03*
X160400D02*
D03*
X144700Y375600D02*
D03*
X160400D02*
D03*
X144700Y380600D02*
D03*
X160400D02*
D03*
X144700Y385600D02*
D03*
X160400D02*
D03*
X144700Y390600D02*
D03*
X160400D02*
D03*
X144700Y395600D02*
D03*
X160400D02*
D03*
X144700Y400600D02*
D03*
X160400D02*
D03*
X144700Y405600D02*
D03*
X160400D02*
D03*
X144700Y410600D02*
D03*
X160400D02*
D03*
X144700Y415600D02*
D03*
X160400D02*
D03*
X144700Y420600D02*
D03*
X160400D02*
D03*
X144700Y425600D02*
D03*
X160400D02*
D03*
X144700Y430600D02*
D03*
X160400D02*
D03*
X144700Y435600D02*
D03*
X160400D02*
D03*
X144700Y440600D02*
D03*
X160400D02*
D03*
X144700Y445600D02*
D03*
X160400D02*
D03*
X144700Y450600D02*
D03*
X160400D02*
D03*
X144700Y455600D02*
D03*
X160400D02*
D03*
X144700Y460600D02*
D03*
X160400D02*
D03*
X144700Y465600D02*
D03*
X160400D02*
D03*
X144700Y470600D02*
D03*
X160400D02*
D03*
X144700Y475600D02*
D03*
X160400D02*
D03*
X144700Y480600D02*
D03*
X160400D02*
D03*
X144700Y485600D02*
D03*
X160400D02*
D03*
D19*
X196000Y220500D02*
D03*
X186000D02*
D03*
X358600Y239500D02*
D03*
Y249500D02*
D03*
Y229500D02*
D03*
Y219400D02*
D03*
X333200Y453400D02*
D03*
X267800Y501600D02*
D03*
X343200Y453100D02*
D03*
X257800Y501600D02*
D03*
X247800D02*
D03*
X237800D02*
D03*
X242500Y219700D02*
D03*
X252500D02*
D03*
X262500D02*
D03*
X272500D02*
D03*
D20*
X287800Y485000D02*
D03*
X277800D02*
D03*
X267800D02*
D03*
X257800D02*
D03*
X247800D02*
D03*
X237800D02*
D03*
X227800D02*
D03*
X217800D02*
D03*
X287800Y435000D02*
D03*
X277800D02*
D03*
X267800D02*
D03*
X257800D02*
D03*
X247800D02*
D03*
X237800D02*
D03*
X227800D02*
D03*
X222500Y238300D02*
D03*
X232500D02*
D03*
X242500D02*
D03*
X252500D02*
D03*
X262500D02*
D03*
X272500D02*
D03*
X282500D02*
D03*
X292500D02*
D03*
X222500Y288300D02*
D03*
X232500D02*
D03*
X242500D02*
D03*
X252500D02*
D03*
X262500D02*
D03*
X272500D02*
D03*
X282500D02*
D03*
D21*
X217800Y435000D02*
D03*
X292500Y288300D02*
D03*
D22*
X292586Y408744D02*
D03*
Y400870D02*
D03*
Y392996D02*
D03*
Y385122D02*
D03*
Y377248D02*
D03*
Y369374D02*
D03*
Y361500D02*
D03*
Y353626D02*
D03*
Y345752D02*
D03*
Y337878D02*
D03*
X379200Y408744D02*
D03*
Y400870D02*
D03*
Y392996D02*
D03*
Y385122D02*
D03*
Y377248D02*
D03*
Y369374D02*
D03*
Y361500D02*
D03*
Y353626D02*
D03*
Y345752D02*
D03*
Y337878D02*
D03*
D23*
X168200Y240600D02*
D03*
X154200Y321100D02*
D03*
X151000Y271900D02*
D03*
X149907Y304400D02*
D03*
X150200Y310700D02*
D03*
X150900Y252400D02*
D03*
X151500Y260500D02*
D03*
M02*
