G04*
G04 #@! TF.GenerationSoftware,Altium Limited,Altium Designer,19.0.15 (446)*
G04*
G04 Layer_Physical_Order=2*
G04 Layer_Color=16711680*
%FSLAX25Y25*%
%MOIN*%
G70*
G01*
G75*
%ADD10C,0.01000*%
%ADD24C,0.05000*%
%ADD25C,0.06000*%
%ADD26C,0.06102*%
%ADD27R,0.06102X0.06102*%
%ADD28R,0.03969X0.03969*%
%ADD29C,0.05000*%
G36*
X386571Y207129D02*
X137100D01*
Y514071D01*
X386571D01*
Y207129D01*
D02*
G37*
%LPC*%
G36*
X267800Y505634D02*
X266756Y505497D01*
X265783Y505094D01*
X264947Y504453D01*
X264306Y503617D01*
X263903Y502644D01*
X263766Y501600D01*
X263903Y500556D01*
X264306Y499583D01*
X264947Y498747D01*
X265783Y498106D01*
X266756Y497703D01*
X267800Y497566D01*
X268844Y497703D01*
X269817Y498106D01*
X270653Y498747D01*
X271294Y499583D01*
X271697Y500556D01*
X271834Y501600D01*
X271697Y502644D01*
X271294Y503617D01*
X270653Y504453D01*
X269817Y505094D01*
X268844Y505497D01*
X267800Y505634D01*
D02*
G37*
G36*
X257800D02*
X256756Y505497D01*
X255783Y505094D01*
X254947Y504453D01*
X254306Y503617D01*
X253903Y502644D01*
X253766Y501600D01*
X253903Y500556D01*
X254306Y499583D01*
X254947Y498747D01*
X255783Y498106D01*
X256756Y497703D01*
X257800Y497566D01*
X258844Y497703D01*
X259817Y498106D01*
X260653Y498747D01*
X261294Y499583D01*
X261697Y500556D01*
X261835Y501600D01*
X261697Y502644D01*
X261294Y503617D01*
X260653Y504453D01*
X259817Y505094D01*
X258844Y505497D01*
X257800Y505634D01*
D02*
G37*
G36*
X247800D02*
X246756Y505497D01*
X245783Y505094D01*
X244947Y504453D01*
X244306Y503617D01*
X243903Y502644D01*
X243765Y501600D01*
X243903Y500556D01*
X244306Y499583D01*
X244947Y498747D01*
X245783Y498106D01*
X246756Y497703D01*
X247800Y497566D01*
X248844Y497703D01*
X249817Y498106D01*
X250653Y498747D01*
X251294Y499583D01*
X251697Y500556D01*
X251835Y501600D01*
X251697Y502644D01*
X251294Y503617D01*
X250653Y504453D01*
X249817Y505094D01*
X248844Y505497D01*
X247800Y505634D01*
D02*
G37*
G36*
X237800D02*
X236756Y505497D01*
X235783Y505094D01*
X234947Y504453D01*
X234306Y503617D01*
X233903Y502644D01*
X233766Y501600D01*
X233903Y500556D01*
X234306Y499583D01*
X234947Y498747D01*
X235783Y498106D01*
X236756Y497703D01*
X237800Y497566D01*
X238844Y497703D01*
X239817Y498106D01*
X240653Y498747D01*
X241294Y499583D01*
X241697Y500556D01*
X241834Y501600D01*
X241697Y502644D01*
X241294Y503617D01*
X240653Y504453D01*
X239817Y505094D01*
X238844Y505497D01*
X237800Y505634D01*
D02*
G37*
G36*
X278300Y489020D02*
Y485500D01*
X281820D01*
X281747Y486058D01*
X281339Y487043D01*
X280689Y487889D01*
X279843Y488539D01*
X278858Y488947D01*
X278300Y489020D01*
D02*
G37*
G36*
X277300D02*
X276742Y488947D01*
X275757Y488539D01*
X274911Y487889D01*
X274261Y487043D01*
X273853Y486058D01*
X273780Y485500D01*
X277300D01*
Y489020D01*
D02*
G37*
G36*
X227800Y489086D02*
X226742Y488947D01*
X225757Y488539D01*
X224911Y487889D01*
X224261Y487043D01*
X223853Y486058D01*
X223714Y485000D01*
X223746Y484753D01*
X223273Y484520D01*
X221749Y486044D01*
X221747Y486058D01*
X221339Y487043D01*
X220689Y487889D01*
X219843Y488539D01*
X218858Y488947D01*
X217800Y489086D01*
X216742Y488947D01*
X215757Y488539D01*
X214911Y487889D01*
X214261Y487043D01*
X213853Y486058D01*
X213714Y485000D01*
X213853Y483942D01*
X214261Y482957D01*
X214911Y482111D01*
X215757Y481461D01*
X216742Y481053D01*
X216756Y481051D01*
X231404Y466404D01*
X232135Y465843D01*
X232986Y465490D01*
X233900Y465370D01*
X285638D01*
X317470Y433538D01*
X317470Y255562D01*
X303738Y241830D01*
X294554D01*
X294543Y241839D01*
X293558Y242247D01*
X292500Y242386D01*
X291442Y242247D01*
X290457Y241839D01*
X289611Y241189D01*
X288961Y240343D01*
X288553Y239358D01*
X288414Y238300D01*
X288553Y237242D01*
X288961Y236257D01*
X289611Y235411D01*
X290457Y234761D01*
X291442Y234353D01*
X292500Y234214D01*
X293558Y234353D01*
X294543Y234761D01*
X294554Y234770D01*
X305200D01*
X306114Y234890D01*
X306965Y235243D01*
X307696Y235804D01*
X323496Y251604D01*
X324057Y252335D01*
X324410Y253186D01*
X324530Y254100D01*
X324530Y435000D01*
X324530Y435000D01*
X324410Y435914D01*
X324057Y436765D01*
X323496Y437496D01*
X289596Y471396D01*
X288865Y471957D01*
X288014Y472310D01*
X287100Y472430D01*
X235362D01*
X227320Y480473D01*
X227553Y480946D01*
X227800Y480914D01*
X228858Y481053D01*
X229843Y481461D01*
X230689Y482111D01*
X231339Y482957D01*
X231747Y483942D01*
X231886Y485000D01*
X231747Y486058D01*
X231339Y487043D01*
X230689Y487889D01*
X229843Y488539D01*
X228858Y488947D01*
X227800Y489086D01*
D02*
G37*
G36*
X281820Y484500D02*
X278300D01*
Y480980D01*
X278858Y481053D01*
X279843Y481461D01*
X280689Y482111D01*
X281339Y482957D01*
X281747Y483942D01*
X281820Y484500D01*
D02*
G37*
G36*
X277300D02*
X273780D01*
X273853Y483942D01*
X274261Y482957D01*
X274911Y482111D01*
X275757Y481461D01*
X276742Y481053D01*
X277300Y480980D01*
Y484500D01*
D02*
G37*
G36*
X287800Y489086D02*
X286742Y488947D01*
X285757Y488539D01*
X284911Y487889D01*
X284261Y487043D01*
X283853Y486058D01*
X283714Y485000D01*
X283853Y483942D01*
X284261Y482957D01*
X284911Y482111D01*
X285757Y481461D01*
X286742Y481053D01*
X287800Y480914D01*
X288858Y481053D01*
X289843Y481461D01*
X290689Y482111D01*
X291339Y482957D01*
X291747Y483942D01*
X291886Y485000D01*
X291747Y486058D01*
X291339Y487043D01*
X290689Y487889D01*
X289843Y488539D01*
X288858Y488947D01*
X287800Y489086D01*
D02*
G37*
G36*
X267800D02*
X266742Y488947D01*
X265757Y488539D01*
X264911Y487889D01*
X264261Y487043D01*
X263853Y486058D01*
X263714Y485000D01*
X263853Y483942D01*
X264261Y482957D01*
X264911Y482111D01*
X265757Y481461D01*
X266742Y481053D01*
X267800Y480914D01*
X268858Y481053D01*
X269843Y481461D01*
X270689Y482111D01*
X271339Y482957D01*
X271747Y483942D01*
X271886Y485000D01*
X271747Y486058D01*
X271339Y487043D01*
X270689Y487889D01*
X269843Y488539D01*
X268858Y488947D01*
X267800Y489086D01*
D02*
G37*
G36*
X257800D02*
X256742Y488947D01*
X255757Y488539D01*
X254911Y487889D01*
X254261Y487043D01*
X253853Y486058D01*
X253714Y485000D01*
X253853Y483942D01*
X254261Y482957D01*
X254911Y482111D01*
X255757Y481461D01*
X256742Y481053D01*
X257800Y480914D01*
X258858Y481053D01*
X259843Y481461D01*
X260689Y482111D01*
X261339Y482957D01*
X261747Y483942D01*
X261886Y485000D01*
X261747Y486058D01*
X261339Y487043D01*
X260689Y487889D01*
X259843Y488539D01*
X258858Y488947D01*
X257800Y489086D01*
D02*
G37*
G36*
X247800D02*
X246742Y488947D01*
X245757Y488539D01*
X244911Y487889D01*
X244261Y487043D01*
X243853Y486058D01*
X243714Y485000D01*
X243853Y483942D01*
X244261Y482957D01*
X244911Y482111D01*
X245757Y481461D01*
X246742Y481053D01*
X247800Y480914D01*
X248858Y481053D01*
X249843Y481461D01*
X250689Y482111D01*
X251339Y482957D01*
X251747Y483942D01*
X251886Y485000D01*
X251747Y486058D01*
X251339Y487043D01*
X250689Y487889D01*
X249843Y488539D01*
X248858Y488947D01*
X247800Y489086D01*
D02*
G37*
G36*
X237800D02*
X236742Y488947D01*
X235757Y488539D01*
X234911Y487889D01*
X234261Y487043D01*
X233853Y486058D01*
X233714Y485000D01*
X233853Y483942D01*
X234261Y482957D01*
X234911Y482111D01*
X235757Y481461D01*
X236742Y481053D01*
X237800Y480914D01*
X238858Y481053D01*
X239843Y481461D01*
X240689Y482111D01*
X241339Y482957D01*
X241747Y483942D01*
X241886Y485000D01*
X241747Y486058D01*
X241339Y487043D01*
X240689Y487889D01*
X239843Y488539D01*
X238858Y488947D01*
X237800Y489086D01*
D02*
G37*
G36*
X333200Y457435D02*
X332156Y457297D01*
X331183Y456894D01*
X330347Y456253D01*
X329706Y455417D01*
X329303Y454444D01*
X329166Y453400D01*
X329303Y452356D01*
X329706Y451383D01*
X330347Y450547D01*
X331183Y449906D01*
X332156Y449503D01*
X333200Y449366D01*
X334244Y449503D01*
X335217Y449906D01*
X336053Y450547D01*
X336694Y451383D01*
X337097Y452356D01*
X337234Y453400D01*
X337097Y454444D01*
X336694Y455417D01*
X336053Y456253D01*
X335217Y456894D01*
X334244Y457297D01*
X333200Y457435D01*
D02*
G37*
G36*
X343200Y457134D02*
X342156Y456997D01*
X341183Y456594D01*
X340347Y455953D01*
X339706Y455117D01*
X339303Y454144D01*
X339165Y453100D01*
X339303Y452056D01*
X339706Y451083D01*
X340347Y450247D01*
X341183Y449606D01*
X342156Y449203D01*
X343200Y449065D01*
X344244Y449203D01*
X345217Y449606D01*
X346053Y450247D01*
X346694Y451083D01*
X347097Y452056D01*
X347235Y453100D01*
X347097Y454144D01*
X346694Y455117D01*
X346053Y455953D01*
X345217Y456594D01*
X344244Y456997D01*
X343200Y457134D01*
D02*
G37*
G36*
X268300Y439020D02*
Y435500D01*
X271820D01*
X271747Y436058D01*
X271339Y437043D01*
X270689Y437889D01*
X269843Y438539D01*
X268858Y438947D01*
X268300Y439020D01*
D02*
G37*
G36*
X258300D02*
Y435500D01*
X261820D01*
X261747Y436058D01*
X261339Y437043D01*
X260689Y437889D01*
X259843Y438539D01*
X258858Y438947D01*
X258300Y439020D01*
D02*
G37*
G36*
X267300D02*
X266742Y438947D01*
X265757Y438539D01*
X264911Y437889D01*
X264261Y437043D01*
X263853Y436058D01*
X263780Y435500D01*
X267300D01*
Y439020D01*
D02*
G37*
G36*
X257300D02*
X256742Y438947D01*
X255757Y438539D01*
X254911Y437889D01*
X254261Y437043D01*
X253853Y436058D01*
X253780Y435500D01*
X257300D01*
Y439020D01*
D02*
G37*
G36*
X271820Y434500D02*
X268300D01*
Y430980D01*
X268858Y431053D01*
X269843Y431461D01*
X270689Y432111D01*
X271339Y432957D01*
X271747Y433942D01*
X271820Y434500D01*
D02*
G37*
G36*
X261820D02*
X258300D01*
Y430980D01*
X258858Y431053D01*
X259843Y431461D01*
X260689Y432111D01*
X261339Y432957D01*
X261747Y433942D01*
X261820Y434500D01*
D02*
G37*
G36*
X257300D02*
X253780D01*
X253853Y433942D01*
X254261Y432957D01*
X254911Y432111D01*
X255757Y431461D01*
X256742Y431053D01*
X257300Y430980D01*
Y434500D01*
D02*
G37*
G36*
X267300D02*
X263780D01*
X263853Y433942D01*
X264261Y432957D01*
X264911Y432111D01*
X265757Y431461D01*
X266742Y431053D01*
X267300Y430980D01*
Y434500D01*
D02*
G37*
G36*
X221851Y439051D02*
X213749D01*
Y430949D01*
X221851D01*
Y439051D01*
D02*
G37*
G36*
X287800Y439086D02*
X286742Y438947D01*
X285757Y438539D01*
X284911Y437889D01*
X284261Y437043D01*
X283853Y436058D01*
X283714Y435000D01*
X283853Y433942D01*
X284261Y432957D01*
X284911Y432111D01*
X285757Y431461D01*
X286742Y431053D01*
X287800Y430914D01*
X288858Y431053D01*
X289843Y431461D01*
X290689Y432111D01*
X291339Y432957D01*
X291747Y433942D01*
X291886Y435000D01*
X291747Y436058D01*
X291339Y437043D01*
X290689Y437889D01*
X289843Y438539D01*
X288858Y438947D01*
X287800Y439086D01*
D02*
G37*
G36*
X277800D02*
X276742Y438947D01*
X275757Y438539D01*
X274911Y437889D01*
X274261Y437043D01*
X273853Y436058D01*
X273714Y435000D01*
X273853Y433942D01*
X274261Y432957D01*
X274911Y432111D01*
X275757Y431461D01*
X276742Y431053D01*
X277800Y430914D01*
X278858Y431053D01*
X279843Y431461D01*
X280689Y432111D01*
X281339Y432957D01*
X281747Y433942D01*
X281886Y435000D01*
X281747Y436058D01*
X281339Y437043D01*
X280689Y437889D01*
X279843Y438539D01*
X278858Y438947D01*
X277800Y439086D01*
D02*
G37*
G36*
X227800D02*
X226742Y438947D01*
X225757Y438539D01*
X224911Y437889D01*
X224261Y437043D01*
X223853Y436058D01*
X223714Y435000D01*
X223853Y433942D01*
X224261Y432957D01*
X224911Y432111D01*
X225757Y431461D01*
X226742Y431053D01*
X227800Y430914D01*
X228858Y431053D01*
X229843Y431461D01*
X230689Y432111D01*
X231339Y432957D01*
X231747Y433942D01*
X231886Y435000D01*
X231747Y436058D01*
X231339Y437043D01*
X230689Y437889D01*
X229843Y438539D01*
X228858Y438947D01*
X227800Y439086D01*
D02*
G37*
G36*
X382184Y411728D02*
X376216D01*
Y405760D01*
X382184D01*
Y411728D01*
D02*
G37*
G36*
X295570D02*
X289602D01*
Y405760D01*
X295570D01*
Y411728D01*
D02*
G37*
G36*
X382184Y403854D02*
X376216D01*
Y397886D01*
X382184D01*
Y403854D01*
D02*
G37*
G36*
X295570D02*
X289602D01*
Y397886D01*
X295570D01*
Y403854D01*
D02*
G37*
G36*
X382184Y395980D02*
X376216D01*
Y390012D01*
X382184D01*
Y395980D01*
D02*
G37*
G36*
X295570D02*
X289602D01*
Y390012D01*
X295570D01*
Y395980D01*
D02*
G37*
G36*
X382184Y388106D02*
X376216D01*
Y382138D01*
X382184D01*
Y388106D01*
D02*
G37*
G36*
X295570D02*
X289602D01*
Y382138D01*
X295570D01*
Y388106D01*
D02*
G37*
G36*
X382184Y380232D02*
X376216D01*
Y374264D01*
X382184D01*
Y380232D01*
D02*
G37*
G36*
X295570D02*
X289602D01*
Y374264D01*
X295570D01*
Y380232D01*
D02*
G37*
G36*
X382184Y372358D02*
X376216D01*
Y366390D01*
X382184D01*
Y372358D01*
D02*
G37*
G36*
X295570D02*
X289602D01*
Y366390D01*
X295570D01*
Y372358D01*
D02*
G37*
G36*
X382184Y364484D02*
X376216D01*
Y358516D01*
X382184D01*
Y364484D01*
D02*
G37*
G36*
X295570D02*
X289602D01*
Y358516D01*
X295570D01*
Y364484D01*
D02*
G37*
G36*
X382184Y356610D02*
X376216D01*
Y350642D01*
X382184D01*
Y356610D01*
D02*
G37*
G36*
X295570D02*
X289602D01*
Y350642D01*
X295570D01*
Y356610D01*
D02*
G37*
G36*
X382184Y348736D02*
X376216D01*
Y342768D01*
X382184D01*
Y348736D01*
D02*
G37*
G36*
X295570D02*
X289602D01*
Y342768D01*
X295570D01*
Y348736D01*
D02*
G37*
G36*
X382184Y340862D02*
X376216D01*
Y334894D01*
X382184D01*
Y340862D01*
D02*
G37*
G36*
X295570D02*
X289602D01*
Y334894D01*
X295570D01*
Y340862D01*
D02*
G37*
G36*
X237800Y439086D02*
X236742Y438947D01*
X235757Y438539D01*
X234911Y437889D01*
X234261Y437043D01*
X233853Y436058D01*
X233714Y435000D01*
X233853Y433942D01*
X234261Y432957D01*
X234911Y432111D01*
X235757Y431461D01*
X236271Y431249D01*
Y406634D01*
X154419Y324781D01*
X154260Y324622D01*
X154200Y324630D01*
X153286Y324510D01*
X152435Y324157D01*
X151704Y323596D01*
X151143Y322865D01*
X150790Y322014D01*
X150670Y321100D01*
X150790Y320186D01*
X151143Y319335D01*
X151704Y318604D01*
X152435Y318043D01*
X153286Y317690D01*
X154200Y317570D01*
X155114Y317690D01*
X155965Y318043D01*
X156696Y318604D01*
X157257Y319335D01*
X157610Y320186D01*
X157730Y321100D01*
X157610Y322014D01*
X157257Y322865D01*
X157071Y323108D01*
X238881Y404919D01*
X239213Y405415D01*
X239329Y406000D01*
Y431249D01*
X239843Y431461D01*
X240689Y432111D01*
X241339Y432957D01*
X241747Y433942D01*
X241886Y435000D01*
X241747Y436058D01*
X241339Y437043D01*
X240689Y437889D01*
X239843Y438539D01*
X238858Y438947D01*
X237800Y439086D01*
D02*
G37*
G36*
X247800D02*
X246742Y438947D01*
X245757Y438539D01*
X244911Y437889D01*
X244261Y437043D01*
X243853Y436058D01*
X243714Y435000D01*
X243853Y433942D01*
X244261Y432957D01*
X244911Y432111D01*
X245757Y431461D01*
X246271Y431249D01*
Y290862D01*
X245771Y290692D01*
X245389Y291189D01*
X244543Y291839D01*
X243558Y292247D01*
X243000Y292320D01*
Y288300D01*
Y284280D01*
X243558Y284353D01*
X244543Y284761D01*
X245389Y285411D01*
X245771Y285908D01*
X246271Y285738D01*
Y283333D01*
X236367Y273429D01*
X154155D01*
X154057Y273665D01*
X153496Y274396D01*
X152765Y274957D01*
X151914Y275310D01*
X151000Y275430D01*
X150086Y275310D01*
X149235Y274957D01*
X148504Y274396D01*
X147943Y273665D01*
X147590Y272814D01*
X147470Y271900D01*
X147590Y270986D01*
X147943Y270135D01*
X148504Y269404D01*
X149235Y268843D01*
X150086Y268490D01*
X151000Y268370D01*
X151914Y268490D01*
X152765Y268843D01*
X153496Y269404D01*
X154057Y270135D01*
X154155Y270371D01*
X237000D01*
X237585Y270487D01*
X238081Y270819D01*
X248881Y281619D01*
X249213Y282115D01*
X249329Y282700D01*
Y284996D01*
X249829Y285243D01*
X250457Y284761D01*
X251442Y284353D01*
X252000Y284280D01*
Y288300D01*
Y292320D01*
X251442Y292247D01*
X250457Y291839D01*
X249829Y291357D01*
X249329Y291604D01*
Y431249D01*
X249843Y431461D01*
X250689Y432111D01*
X251339Y432957D01*
X251747Y433942D01*
X251886Y435000D01*
X251747Y436058D01*
X251339Y437043D01*
X250689Y437889D01*
X249843Y438539D01*
X248858Y438947D01*
X247800Y439086D01*
D02*
G37*
G36*
X253000Y292320D02*
Y288800D01*
X256520D01*
X256447Y289358D01*
X256039Y290343D01*
X255389Y291189D01*
X254543Y291839D01*
X253558Y292247D01*
X253000Y292320D01*
D02*
G37*
G36*
X242000D02*
X241442Y292247D01*
X240457Y291839D01*
X239611Y291189D01*
X238961Y290343D01*
X238553Y289358D01*
X238480Y288800D01*
X242000D01*
Y292320D01*
D02*
G37*
G36*
X256520Y287800D02*
X253000D01*
Y284280D01*
X253558Y284353D01*
X254543Y284761D01*
X255389Y285411D01*
X256039Y286257D01*
X256447Y287242D01*
X256520Y287800D01*
D02*
G37*
G36*
X242000D02*
X238480D01*
X238553Y287242D01*
X238961Y286257D01*
X239611Y285411D01*
X240457Y284761D01*
X241442Y284353D01*
X242000Y284280D01*
Y287800D01*
D02*
G37*
G36*
X296551Y292351D02*
X288449D01*
Y284249D01*
X296551D01*
Y292351D01*
D02*
G37*
G36*
X282500Y292386D02*
X281442Y292247D01*
X280457Y291839D01*
X279611Y291189D01*
X278961Y290343D01*
X278553Y289358D01*
X278414Y288300D01*
X278553Y287242D01*
X278766Y286729D01*
X245967Y253929D01*
X154055D01*
X153957Y254165D01*
X153396Y254896D01*
X152665Y255457D01*
X151814Y255810D01*
X150900Y255930D01*
X149986Y255810D01*
X149135Y255457D01*
X148404Y254896D01*
X147843Y254165D01*
X147490Y253314D01*
X147370Y252400D01*
X147490Y251486D01*
X147843Y250635D01*
X148404Y249904D01*
X149135Y249343D01*
X149986Y248990D01*
X150900Y248870D01*
X151814Y248990D01*
X152665Y249343D01*
X153396Y249904D01*
X153957Y250635D01*
X154055Y250871D01*
X246600D01*
X247185Y250987D01*
X247681Y251319D01*
X280929Y284566D01*
X281442Y284353D01*
X282500Y284214D01*
X283558Y284353D01*
X284543Y284761D01*
X285389Y285411D01*
X286039Y286257D01*
X286447Y287242D01*
X286586Y288300D01*
X286447Y289358D01*
X286039Y290343D01*
X285389Y291189D01*
X284543Y291839D01*
X283558Y292247D01*
X282500Y292386D01*
D02*
G37*
G36*
X272500D02*
X271442Y292247D01*
X270457Y291839D01*
X269611Y291189D01*
X268961Y290343D01*
X268553Y289358D01*
X268414Y288300D01*
X268553Y287242D01*
X268961Y286257D01*
X269611Y285411D01*
X270457Y284761D01*
X271442Y284353D01*
X272500Y284214D01*
X273558Y284353D01*
X274543Y284761D01*
X275389Y285411D01*
X276039Y286257D01*
X276447Y287242D01*
X276586Y288300D01*
X276447Y289358D01*
X276039Y290343D01*
X275389Y291189D01*
X274543Y291839D01*
X273558Y292247D01*
X272500Y292386D01*
D02*
G37*
G36*
X262500D02*
X261442Y292247D01*
X260457Y291839D01*
X259611Y291189D01*
X258961Y290343D01*
X258553Y289358D01*
X258414Y288300D01*
X258553Y287242D01*
X258766Y286729D01*
X234067Y262029D01*
X154655D01*
X154557Y262265D01*
X153996Y262996D01*
X153265Y263557D01*
X152414Y263910D01*
X151500Y264030D01*
X150586Y263910D01*
X149735Y263557D01*
X149004Y262996D01*
X148443Y262265D01*
X148090Y261414D01*
X147970Y260500D01*
X148090Y259586D01*
X148443Y258735D01*
X149004Y258004D01*
X149735Y257443D01*
X150586Y257090D01*
X151500Y256970D01*
X152414Y257090D01*
X153265Y257443D01*
X153996Y258004D01*
X154557Y258735D01*
X154655Y258971D01*
X234700D01*
X235285Y259087D01*
X235781Y259419D01*
X260929Y284566D01*
X261442Y284353D01*
X262500Y284214D01*
X263558Y284353D01*
X264543Y284761D01*
X265389Y285411D01*
X266039Y286257D01*
X266447Y287242D01*
X266586Y288300D01*
X266447Y289358D01*
X266039Y290343D01*
X265389Y291189D01*
X264543Y291839D01*
X263558Y292247D01*
X262500Y292386D01*
D02*
G37*
G36*
X150200Y314230D02*
X149286Y314110D01*
X148435Y313757D01*
X147704Y313196D01*
X147143Y312465D01*
X146790Y311614D01*
X146670Y310700D01*
X146790Y309786D01*
X147143Y308935D01*
X147704Y308204D01*
X148031Y307953D01*
X148062Y307814D01*
X147998Y307347D01*
X147411Y306896D01*
X146850Y306165D01*
X146497Y305314D01*
X146377Y304400D01*
X146497Y303486D01*
X146850Y302635D01*
X147411Y301904D01*
X148142Y301343D01*
X148377Y301245D01*
Y300493D01*
X148494Y299908D01*
X148825Y299412D01*
X165570Y282667D01*
X166066Y282336D01*
X166651Y282219D01*
X227949D01*
X228534Y282336D01*
X229030Y282667D01*
X230929Y284566D01*
X231442Y284353D01*
X232500Y284214D01*
X233558Y284353D01*
X234543Y284761D01*
X235389Y285411D01*
X236039Y286257D01*
X236447Y287242D01*
X236586Y288300D01*
X236447Y289358D01*
X236039Y290343D01*
X235389Y291189D01*
X234543Y291839D01*
X233558Y292247D01*
X232500Y292386D01*
X231442Y292247D01*
X230457Y291839D01*
X229611Y291189D01*
X228961Y290343D01*
X228553Y289358D01*
X228414Y288300D01*
X228553Y287242D01*
X228766Y286729D01*
X227315Y285278D01*
X225918D01*
X225671Y285778D01*
X226039Y286257D01*
X226447Y287242D01*
X226586Y288300D01*
X226447Y289358D01*
X226039Y290343D01*
X225389Y291189D01*
X224543Y291839D01*
X223558Y292247D01*
X222500Y292386D01*
X221442Y292247D01*
X220457Y291839D01*
X219611Y291189D01*
X218961Y290343D01*
X218748Y289829D01*
X172233D01*
X155536Y306527D01*
X155513Y306642D01*
X155181Y307138D01*
X153295Y309025D01*
X153610Y309786D01*
X153730Y310700D01*
X153610Y311614D01*
X153257Y312465D01*
X152696Y313196D01*
X151965Y313757D01*
X151114Y314110D01*
X150200Y314230D01*
D02*
G37*
G36*
X359100Y253469D02*
Y250000D01*
X362569D01*
X362497Y250544D01*
X362094Y251517D01*
X361453Y252353D01*
X360617Y252994D01*
X359644Y253397D01*
X359100Y253469D01*
D02*
G37*
G36*
X358100D02*
X357556Y253397D01*
X356583Y252994D01*
X355747Y252353D01*
X355106Y251517D01*
X354703Y250544D01*
X354631Y250000D01*
X358100D01*
Y253469D01*
D02*
G37*
G36*
X362569Y249000D02*
X359100D01*
Y245531D01*
X359644Y245603D01*
X360617Y246006D01*
X361453Y246647D01*
X362094Y247483D01*
X362497Y248456D01*
X362569Y249000D01*
D02*
G37*
G36*
X358100D02*
X354631D01*
X354703Y248456D01*
X355106Y247483D01*
X355747Y246647D01*
X356583Y246006D01*
X357556Y245603D01*
X358100Y245531D01*
Y249000D01*
D02*
G37*
G36*
X168700Y244064D02*
Y241100D01*
X171664D01*
X171610Y241514D01*
X171257Y242365D01*
X170696Y243096D01*
X169965Y243657D01*
X169114Y244010D01*
X168700Y244064D01*
D02*
G37*
G36*
X167700D02*
X167286Y244010D01*
X166435Y243657D01*
X165704Y243096D01*
X165143Y242365D01*
X164790Y241514D01*
X164736Y241100D01*
X167700D01*
Y244064D01*
D02*
G37*
G36*
X359100Y243469D02*
Y240000D01*
X362569D01*
X362497Y240544D01*
X362094Y241517D01*
X361453Y242353D01*
X360617Y242994D01*
X359644Y243397D01*
X359100Y243469D01*
D02*
G37*
G36*
X358100D02*
X357556Y243397D01*
X356583Y242994D01*
X355747Y242353D01*
X355106Y241517D01*
X354703Y240544D01*
X354631Y240000D01*
X358100D01*
Y243469D01*
D02*
G37*
G36*
X233000Y242320D02*
Y238800D01*
X236520D01*
X236447Y239358D01*
X236039Y240343D01*
X235389Y241189D01*
X234543Y241839D01*
X233558Y242247D01*
X233000Y242320D01*
D02*
G37*
G36*
X232000D02*
X231442Y242247D01*
X230457Y241839D01*
X229611Y241189D01*
X228961Y240343D01*
X228553Y239358D01*
X228480Y238800D01*
X232000D01*
Y242320D01*
D02*
G37*
G36*
X171664Y240100D02*
X168700D01*
Y237136D01*
X169114Y237190D01*
X169965Y237543D01*
X170696Y238104D01*
X171257Y238835D01*
X171610Y239686D01*
X171664Y240100D01*
D02*
G37*
G36*
X167700D02*
X164736D01*
X164790Y239686D01*
X165143Y238835D01*
X165704Y238104D01*
X166435Y237543D01*
X167286Y237190D01*
X167700Y237136D01*
Y240100D01*
D02*
G37*
G36*
X362569Y239000D02*
X359100D01*
Y235531D01*
X359644Y235603D01*
X360617Y236006D01*
X361453Y236647D01*
X362094Y237483D01*
X362497Y238456D01*
X362569Y239000D01*
D02*
G37*
G36*
X358100D02*
X354631D01*
X354703Y238456D01*
X355106Y237483D01*
X355747Y236647D01*
X356583Y236006D01*
X357556Y235603D01*
X358100Y235531D01*
Y239000D01*
D02*
G37*
G36*
X236520Y237800D02*
X233000D01*
Y234280D01*
X233558Y234353D01*
X234543Y234761D01*
X235389Y235411D01*
X236039Y236257D01*
X236447Y237242D01*
X236520Y237800D01*
D02*
G37*
G36*
X232000D02*
X228480D01*
X228553Y237242D01*
X228961Y236257D01*
X229611Y235411D01*
X230457Y234761D01*
X231442Y234353D01*
X232000Y234280D01*
Y237800D01*
D02*
G37*
G36*
X282500Y242386D02*
X281442Y242247D01*
X280457Y241839D01*
X279611Y241189D01*
X278961Y240343D01*
X278553Y239358D01*
X278414Y238300D01*
X278553Y237242D01*
X278961Y236257D01*
X279611Y235411D01*
X280457Y234761D01*
X281442Y234353D01*
X282500Y234214D01*
X283558Y234353D01*
X284543Y234761D01*
X285389Y235411D01*
X286039Y236257D01*
X286447Y237242D01*
X286586Y238300D01*
X286447Y239358D01*
X286039Y240343D01*
X285389Y241189D01*
X284543Y241839D01*
X283558Y242247D01*
X282500Y242386D01*
D02*
G37*
G36*
X272500D02*
X271442Y242247D01*
X270457Y241839D01*
X269611Y241189D01*
X268961Y240343D01*
X268553Y239358D01*
X268414Y238300D01*
X268553Y237242D01*
X268961Y236257D01*
X269611Y235411D01*
X270457Y234761D01*
X271442Y234353D01*
X272500Y234214D01*
X273558Y234353D01*
X274543Y234761D01*
X275389Y235411D01*
X276039Y236257D01*
X276447Y237242D01*
X276586Y238300D01*
X276447Y239358D01*
X276039Y240343D01*
X275389Y241189D01*
X274543Y241839D01*
X273558Y242247D01*
X272500Y242386D01*
D02*
G37*
G36*
X262500D02*
X261442Y242247D01*
X260457Y241839D01*
X259611Y241189D01*
X258961Y240343D01*
X258553Y239358D01*
X258414Y238300D01*
X258553Y237242D01*
X258961Y236257D01*
X259611Y235411D01*
X260457Y234761D01*
X261442Y234353D01*
X262500Y234214D01*
X263558Y234353D01*
X264543Y234761D01*
X265389Y235411D01*
X266039Y236257D01*
X266447Y237242D01*
X266586Y238300D01*
X266447Y239358D01*
X266039Y240343D01*
X265389Y241189D01*
X264543Y241839D01*
X263558Y242247D01*
X262500Y242386D01*
D02*
G37*
G36*
X252500D02*
X251442Y242247D01*
X250457Y241839D01*
X249611Y241189D01*
X248961Y240343D01*
X248553Y239358D01*
X248414Y238300D01*
X248553Y237242D01*
X248961Y236257D01*
X249611Y235411D01*
X250457Y234761D01*
X251442Y234353D01*
X252500Y234214D01*
X253558Y234353D01*
X254543Y234761D01*
X255389Y235411D01*
X256039Y236257D01*
X256447Y237242D01*
X256586Y238300D01*
X256447Y239358D01*
X256039Y240343D01*
X255389Y241189D01*
X254543Y241839D01*
X253558Y242247D01*
X252500Y242386D01*
D02*
G37*
G36*
X242500D02*
X241442Y242247D01*
X240457Y241839D01*
X239611Y241189D01*
X238961Y240343D01*
X238553Y239358D01*
X238414Y238300D01*
X238553Y237242D01*
X238961Y236257D01*
X239611Y235411D01*
X240457Y234761D01*
X241442Y234353D01*
X242500Y234214D01*
X243558Y234353D01*
X244543Y234761D01*
X245389Y235411D01*
X246039Y236257D01*
X246447Y237242D01*
X246586Y238300D01*
X246447Y239358D01*
X246039Y240343D01*
X245389Y241189D01*
X244543Y241839D01*
X243558Y242247D01*
X242500Y242386D01*
D02*
G37*
G36*
X222500D02*
X221442Y242247D01*
X220457Y241839D01*
X219611Y241189D01*
X218961Y240343D01*
X218553Y239358D01*
X218414Y238300D01*
X218553Y237242D01*
X218961Y236257D01*
X219611Y235411D01*
X220457Y234761D01*
X221442Y234353D01*
X222500Y234214D01*
X223558Y234353D01*
X224543Y234761D01*
X225389Y235411D01*
X226039Y236257D01*
X226447Y237242D01*
X226586Y238300D01*
X226447Y239358D01*
X226039Y240343D01*
X225389Y241189D01*
X224543Y241839D01*
X223558Y242247D01*
X222500Y242386D01*
D02*
G37*
G36*
X358600Y233535D02*
X357556Y233397D01*
X356583Y232994D01*
X355747Y232353D01*
X355106Y231517D01*
X354703Y230544D01*
X354566Y229500D01*
X354703Y228456D01*
X355106Y227483D01*
X355747Y226647D01*
X356583Y226006D01*
X357556Y225603D01*
X358600Y225465D01*
X359644Y225603D01*
X360617Y226006D01*
X361453Y226647D01*
X362094Y227483D01*
X362497Y228456D01*
X362634Y229500D01*
X362497Y230544D01*
X362094Y231517D01*
X361453Y232353D01*
X360617Y232994D01*
X359644Y233397D01*
X358600Y233535D01*
D02*
G37*
G36*
X196000Y224535D02*
X194956Y224397D01*
X193983Y223994D01*
X193147Y223353D01*
X192506Y222517D01*
X192103Y221544D01*
X191965Y220500D01*
X192103Y219456D01*
X192506Y218483D01*
X193147Y217647D01*
X193983Y217006D01*
X194956Y216603D01*
X196000Y216465D01*
X197044Y216603D01*
X198017Y217006D01*
X198853Y217647D01*
X199494Y218483D01*
X199897Y219456D01*
X200034Y220500D01*
X199897Y221544D01*
X199494Y222517D01*
X198853Y223353D01*
X198017Y223994D01*
X197044Y224397D01*
X196000Y224535D01*
D02*
G37*
G36*
X186000D02*
X184956Y224397D01*
X183983Y223994D01*
X183147Y223353D01*
X182506Y222517D01*
X182103Y221544D01*
X181965Y220500D01*
X182103Y219456D01*
X182506Y218483D01*
X183147Y217647D01*
X183983Y217006D01*
X184956Y216603D01*
X186000Y216465D01*
X187044Y216603D01*
X188017Y217006D01*
X188853Y217647D01*
X189494Y218483D01*
X189897Y219456D01*
X190034Y220500D01*
X189897Y221544D01*
X189494Y222517D01*
X188853Y223353D01*
X188017Y223994D01*
X187044Y224397D01*
X186000Y224535D01*
D02*
G37*
G36*
X272500Y223734D02*
X271456Y223597D01*
X270483Y223194D01*
X269647Y222553D01*
X269006Y221717D01*
X268603Y220744D01*
X268465Y219700D01*
X268603Y218656D01*
X269006Y217683D01*
X269647Y216847D01*
X270483Y216206D01*
X271456Y215803D01*
X272500Y215666D01*
X273544Y215803D01*
X274517Y216206D01*
X275353Y216847D01*
X275994Y217683D01*
X276397Y218656D01*
X276535Y219700D01*
X276397Y220744D01*
X275994Y221717D01*
X275353Y222553D01*
X274517Y223194D01*
X273544Y223597D01*
X272500Y223734D01*
D02*
G37*
G36*
X262500D02*
X261456Y223597D01*
X260483Y223194D01*
X259647Y222553D01*
X259006Y221717D01*
X258603Y220744D01*
X258466Y219700D01*
X258603Y218656D01*
X259006Y217683D01*
X259647Y216847D01*
X260483Y216206D01*
X261456Y215803D01*
X262500Y215666D01*
X263544Y215803D01*
X264517Y216206D01*
X265353Y216847D01*
X265994Y217683D01*
X266397Y218656D01*
X266534Y219700D01*
X266397Y220744D01*
X265994Y221717D01*
X265353Y222553D01*
X264517Y223194D01*
X263544Y223597D01*
X262500Y223734D01*
D02*
G37*
G36*
X252500D02*
X251456Y223597D01*
X250483Y223194D01*
X249647Y222553D01*
X249006Y221717D01*
X248603Y220744D01*
X248465Y219700D01*
X248603Y218656D01*
X249006Y217683D01*
X249647Y216847D01*
X250483Y216206D01*
X251456Y215803D01*
X252500Y215666D01*
X253544Y215803D01*
X254517Y216206D01*
X255353Y216847D01*
X255994Y217683D01*
X256397Y218656D01*
X256535Y219700D01*
X256397Y220744D01*
X255994Y221717D01*
X255353Y222553D01*
X254517Y223194D01*
X253544Y223597D01*
X252500Y223734D01*
D02*
G37*
G36*
X242500D02*
X241456Y223597D01*
X240483Y223194D01*
X239647Y222553D01*
X239006Y221717D01*
X238603Y220744D01*
X238465Y219700D01*
X238603Y218656D01*
X239006Y217683D01*
X239647Y216847D01*
X240483Y216206D01*
X241456Y215803D01*
X242500Y215666D01*
X243544Y215803D01*
X244517Y216206D01*
X245353Y216847D01*
X245994Y217683D01*
X246397Y218656D01*
X246534Y219700D01*
X246397Y220744D01*
X245994Y221717D01*
X245353Y222553D01*
X244517Y223194D01*
X243544Y223597D01*
X242500Y223734D01*
D02*
G37*
G36*
X358600Y223434D02*
X357556Y223297D01*
X356583Y222894D01*
X355747Y222253D01*
X355106Y221417D01*
X354703Y220444D01*
X354566Y219400D01*
X354703Y218356D01*
X355106Y217383D01*
X355747Y216547D01*
X356583Y215906D01*
X357556Y215503D01*
X358600Y215366D01*
X359644Y215503D01*
X360617Y215906D01*
X361453Y216547D01*
X362094Y217383D01*
X362497Y218356D01*
X362634Y219400D01*
X362497Y220444D01*
X362094Y221417D01*
X361453Y222253D01*
X360617Y222894D01*
X359644Y223297D01*
X358600Y223434D01*
D02*
G37*
%LPD*%
G36*
X380039Y410542D02*
X381065Y409423D01*
X380998Y407905D01*
X379879Y406880D01*
X378361Y406946D01*
X377335Y408066D01*
X377402Y409583D01*
X378521Y410609D01*
X380039Y410542D01*
D02*
G37*
G36*
Y402668D02*
X381065Y401549D01*
X380998Y400032D01*
X379879Y399006D01*
X378361Y399072D01*
X377335Y400191D01*
X377402Y401709D01*
X378521Y402735D01*
X380039Y402668D01*
D02*
G37*
G36*
X293424D02*
X294450Y401549D01*
X294384Y400032D01*
X293265Y399006D01*
X291747Y399072D01*
X290721Y400191D01*
X290788Y401709D01*
X291907Y402735D01*
X293424Y402668D01*
D02*
G37*
G36*
X380039Y394794D02*
X381065Y393675D01*
X380998Y392158D01*
X379879Y391131D01*
X378361Y391198D01*
X377335Y392317D01*
X377402Y393835D01*
X378521Y394861D01*
X380039Y394794D01*
D02*
G37*
G36*
X293424D02*
X294450Y393675D01*
X294384Y392158D01*
X293265Y391131D01*
X291747Y391198D01*
X290721Y392317D01*
X290788Y393835D01*
X291907Y394861D01*
X293424Y394794D01*
D02*
G37*
G36*
X380039Y386920D02*
X381065Y385801D01*
X380998Y384283D01*
X379879Y383258D01*
X378361Y383324D01*
X377335Y384443D01*
X377402Y385961D01*
X378521Y386987D01*
X380039Y386920D01*
D02*
G37*
G36*
X293424D02*
X294450Y385801D01*
X294384Y384283D01*
X293265Y383258D01*
X291747Y383324D01*
X290721Y384443D01*
X290788Y385961D01*
X291907Y386987D01*
X293424Y386920D01*
D02*
G37*
G36*
X380039Y379046D02*
X381065Y377927D01*
X380998Y376410D01*
X379879Y375383D01*
X378361Y375450D01*
X377335Y376569D01*
X377402Y378087D01*
X378521Y379113D01*
X380039Y379046D01*
D02*
G37*
G36*
X293424D02*
X294450Y377927D01*
X294384Y376410D01*
X293265Y375383D01*
X291747Y375450D01*
X290721Y376569D01*
X290788Y378087D01*
X291907Y379113D01*
X293424Y379046D01*
D02*
G37*
G36*
X380039Y371172D02*
X381065Y370053D01*
X380998Y368535D01*
X379879Y367509D01*
X378361Y367576D01*
X377335Y368695D01*
X377402Y370213D01*
X378521Y371239D01*
X380039Y371172D01*
D02*
G37*
G36*
X293424D02*
X294450Y370053D01*
X294384Y368535D01*
X293265Y367509D01*
X291747Y367576D01*
X290721Y368695D01*
X290788Y370213D01*
X291907Y371239D01*
X293424Y371172D01*
D02*
G37*
G36*
X380039Y363298D02*
X381065Y362179D01*
X380998Y360661D01*
X379879Y359635D01*
X378361Y359702D01*
X377335Y360821D01*
X377402Y362339D01*
X378521Y363365D01*
X380039Y363298D01*
D02*
G37*
G36*
X293424D02*
X294450Y362179D01*
X294384Y360661D01*
X293265Y359635D01*
X291747Y359702D01*
X290721Y360821D01*
X290788Y362339D01*
X291907Y363365D01*
X293424Y363298D01*
D02*
G37*
G36*
X380039Y355424D02*
X381065Y354305D01*
X380998Y352787D01*
X379879Y351761D01*
X378361Y351828D01*
X377335Y352947D01*
X377402Y354465D01*
X378521Y355491D01*
X380039Y355424D01*
D02*
G37*
G36*
X293424D02*
X294450Y354305D01*
X294384Y352787D01*
X293265Y351761D01*
X291747Y351828D01*
X290721Y352947D01*
X290788Y354465D01*
X291907Y355491D01*
X293424Y355424D01*
D02*
G37*
G36*
X380039Y347550D02*
X381065Y346431D01*
X380998Y344913D01*
X379879Y343887D01*
X378361Y343954D01*
X377335Y345073D01*
X377402Y346590D01*
X378521Y347617D01*
X380039Y347550D01*
D02*
G37*
G36*
X293424D02*
X294450Y346431D01*
X294384Y344913D01*
X293265Y343887D01*
X291747Y343954D01*
X290721Y345073D01*
X290788Y346590D01*
X291907Y347617D01*
X293424Y347550D01*
D02*
G37*
G36*
X380039Y339676D02*
X381065Y338557D01*
X380998Y337039D01*
X379879Y336013D01*
X378361Y336080D01*
X377335Y337199D01*
X377402Y338717D01*
X378521Y339742D01*
X380039Y339676D01*
D02*
G37*
G36*
X293424D02*
X294450Y338557D01*
X294384Y337039D01*
X293265Y336013D01*
X291747Y336080D01*
X290721Y337199D01*
X290788Y338717D01*
X291907Y339742D01*
X293424Y339676D01*
D02*
G37*
G36*
X170519Y287219D02*
X171015Y286887D01*
X171600Y286771D01*
X218748D01*
X218961Y286257D01*
X219329Y285778D01*
X219082Y285278D01*
X167285D01*
X151735Y300828D01*
X151716Y300981D01*
X151816Y301454D01*
X152403Y301904D01*
X152964Y302635D01*
X153317Y303486D01*
X153351Y303751D01*
X153825Y303912D01*
X170519Y287219D01*
D02*
G37*
D10*
X154200Y321100D02*
Y322400D01*
X155500Y323700D01*
X237800Y406000D01*
X151000Y271900D02*
X237000D01*
X247800Y282700D01*
Y435000D01*
X149907Y300493D02*
X166651Y283749D01*
X149907Y300493D02*
Y304400D01*
X151500Y308400D02*
X151757D01*
X150200Y309700D02*
X151500Y308400D01*
X151757D02*
X154100Y306057D01*
Y305800D02*
X171600Y288300D01*
X154100Y305800D02*
Y306057D01*
X150200Y309700D02*
Y310700D01*
X237800Y406000D02*
Y435000D01*
X171600Y288300D02*
X222500D01*
X246600Y252400D02*
X282500Y288300D01*
X150900Y252400D02*
X246600D01*
X151500Y260500D02*
X234700D01*
X262500Y288300D01*
X166651Y283749D02*
X227949D01*
X232500Y288300D01*
D24*
X305200Y238300D02*
X321000Y254100D01*
X321000Y435000D02*
X321000Y254100D01*
X287100Y468900D02*
X321000Y435000D01*
X292500Y238300D02*
X305200D01*
X233900Y468900D02*
X287100D01*
X217800Y485000D02*
X233900Y468900D01*
D25*
X196000Y220500D02*
D03*
X186000D02*
D03*
X358600Y239500D02*
D03*
Y249500D02*
D03*
Y229500D02*
D03*
Y219400D02*
D03*
X333200Y453400D02*
D03*
X267800Y501600D02*
D03*
X343200Y453100D02*
D03*
X257800Y501600D02*
D03*
X247800D02*
D03*
X237800D02*
D03*
X242500Y219700D02*
D03*
X252500D02*
D03*
X262500D02*
D03*
X272500D02*
D03*
D26*
X287800Y485000D02*
D03*
X277800D02*
D03*
X267800D02*
D03*
X257800D02*
D03*
X247800D02*
D03*
X237800D02*
D03*
X227800D02*
D03*
X217800D02*
D03*
X287800Y435000D02*
D03*
X277800D02*
D03*
X267800D02*
D03*
X257800D02*
D03*
X247800D02*
D03*
X237800D02*
D03*
X227800D02*
D03*
X222500Y238300D02*
D03*
X232500D02*
D03*
X242500D02*
D03*
X252500D02*
D03*
X262500D02*
D03*
X272500D02*
D03*
X282500D02*
D03*
X292500D02*
D03*
X222500Y288300D02*
D03*
X232500D02*
D03*
X242500D02*
D03*
X252500D02*
D03*
X262500D02*
D03*
X272500D02*
D03*
X282500D02*
D03*
D27*
X217800Y435000D02*
D03*
X292500Y288300D02*
D03*
D28*
X292586Y408744D02*
D03*
Y400870D02*
D03*
Y392996D02*
D03*
Y385122D02*
D03*
Y377248D02*
D03*
Y369374D02*
D03*
Y361500D02*
D03*
Y353626D02*
D03*
Y345752D02*
D03*
Y337878D02*
D03*
X379200Y408744D02*
D03*
Y400870D02*
D03*
Y392996D02*
D03*
Y385122D02*
D03*
Y377248D02*
D03*
Y369374D02*
D03*
Y361500D02*
D03*
Y353626D02*
D03*
Y345752D02*
D03*
Y337878D02*
D03*
D29*
X168200Y240600D02*
D03*
X154200Y321100D02*
D03*
X151000Y271900D02*
D03*
X149907Y304400D02*
D03*
X150200Y310700D02*
D03*
X150900Y252400D02*
D03*
X151500Y260500D02*
D03*
M02*
