M48
;Layer_Color=9474304
;FILE_FORMAT=2:5
INCH,LZ
;TYPE=PLATED
T1F00S00C0.01968
T2F00S00C0.02800
T3F00S00C0.04016
%
T01
X0292586Y0337878
Y0345752
Y0353626
Y03615
Y0369374
Y0377248
Y0385122
Y0392996
Y040087
Y0408744
X03792
Y040087
Y0392996
Y0385122
Y0377248
Y0369374
Y03615
Y0353626
Y0345752
Y0337878
T02
X01682Y02406
X01509Y02524
X01515Y02605
X0151Y02719
X0149907Y03044
X01502Y03107
X01542Y03211
T03
X03586Y02194
Y02295
Y02395
Y02495
X02925Y02383
X02825
X02725
X02625
X02525
X02425
X02325
X02225
X02425Y02197
X02525
X02625
X02725
Y02883
X02625
X02525
X02425
X02325
X02225
X02825
X02925
X0196Y02205
X0186
X02178Y0435
X02278
X02378
X02478
X02578
X02678
X02778
X02878
X03332Y04534
X03432Y04531
X02878Y0485
X02778
X02678
X02578
X02478
X02378
X02278
X02178
X02378Y05016
X02478
X02578
X02678
M30
