G04*
G04 #@! TF.GenerationSoftware,Altium Limited,Altium Designer,19.0.15 (446)*
G04*
G04 Layer_Color=65535*
%FSLAX25Y25*%
%MOIN*%
G70*
G01*
G75*
%ADD10C,0.01000*%
%ADD11C,0.00787*%
%ADD12C,0.00394*%
%ADD13C,0.00787*%
%ADD14C,0.00600*%
G36*
X162900Y230089D02*
X162889D01*
X162862D01*
X162819D01*
X162766Y230095D01*
X162701Y230100D01*
X162631Y230116D01*
X162556Y230132D01*
X162480Y230159D01*
X162475D01*
X162464Y230165D01*
X162448Y230170D01*
X162421Y230181D01*
X162394Y230197D01*
X162357Y230213D01*
X162270Y230256D01*
X162168Y230310D01*
X162055Y230380D01*
X161937Y230461D01*
X161819Y230557D01*
X161813Y230563D01*
X161802Y230568D01*
X161786Y230584D01*
X161759Y230611D01*
X161732Y230638D01*
X161695Y230676D01*
X161652Y230714D01*
X161603Y230762D01*
X161550Y230816D01*
X161496Y230875D01*
X161431Y230939D01*
X161367Y231015D01*
X161297Y231090D01*
X161227Y231176D01*
X161152Y231262D01*
X161071Y231359D01*
X161065Y231370D01*
X161038Y231397D01*
X161006Y231434D01*
X160958Y231488D01*
X160904Y231553D01*
X160839Y231628D01*
X160769Y231714D01*
X160689Y231800D01*
X160522Y231983D01*
X160345Y232161D01*
X160258Y232247D01*
X160172Y232328D01*
X160092Y232397D01*
X160016Y232457D01*
X160011Y232462D01*
X160000Y232467D01*
X159979Y232484D01*
X159952Y232500D01*
X159914Y232526D01*
X159876Y232548D01*
X159780Y232602D01*
X159667Y232656D01*
X159543Y232704D01*
X159414Y232736D01*
X159349Y232742D01*
X159285Y232747D01*
X159279D01*
X159268D01*
X159247D01*
X159225Y232742D01*
X159193D01*
X159155Y232731D01*
X159075Y232715D01*
X158978Y232682D01*
X158876Y232634D01*
X158822Y232607D01*
X158774Y232570D01*
X158725Y232532D01*
X158677Y232484D01*
X158671Y232478D01*
X158666Y232473D01*
X158655Y232457D01*
X158639Y232435D01*
X158617Y232408D01*
X158596Y232376D01*
X158548Y232301D01*
X158504Y232198D01*
X158461Y232085D01*
X158435Y231951D01*
X158424Y231875D01*
Y231757D01*
X158429Y231725D01*
Y231687D01*
X158440Y231644D01*
X158456Y231547D01*
X158488Y231434D01*
X158537Y231316D01*
X158569Y231257D01*
X158601Y231198D01*
X158644Y231144D01*
X158693Y231090D01*
X158698Y231085D01*
X158704Y231079D01*
X158720Y231068D01*
X158741Y231047D01*
X158768Y231031D01*
X158800Y231009D01*
X158838Y230982D01*
X158881Y230961D01*
X158930Y230934D01*
X158983Y230912D01*
X159113Y230870D01*
X159252Y230837D01*
X159333Y230832D01*
X159419Y230826D01*
X159355Y230202D01*
X159344D01*
X159322Y230208D01*
X159290Y230213D01*
X159242Y230219D01*
X159182Y230229D01*
X159113Y230245D01*
X159037Y230261D01*
X158957Y230288D01*
X158876Y230315D01*
X158784Y230348D01*
X158698Y230391D01*
X158612Y230434D01*
X158521Y230487D01*
X158440Y230547D01*
X158359Y230611D01*
X158289Y230687D01*
X158284Y230692D01*
X158273Y230708D01*
X158257Y230730D01*
X158230Y230762D01*
X158203Y230805D01*
X158171Y230859D01*
X158139Y230918D01*
X158101Y230988D01*
X158069Y231063D01*
X158036Y231149D01*
X158004Y231241D01*
X157977Y231343D01*
X157950Y231451D01*
X157934Y231563D01*
X157923Y231687D01*
X157918Y231816D01*
Y231886D01*
X157923Y231935D01*
X157929Y231994D01*
X157940Y232064D01*
X157950Y232144D01*
X157966Y232225D01*
X157988Y232317D01*
X158015Y232408D01*
X158047Y232505D01*
X158085Y232596D01*
X158133Y232693D01*
X158187Y232785D01*
X158246Y232871D01*
X158316Y232951D01*
X158322Y232957D01*
X158332Y232968D01*
X158359Y232989D01*
X158386Y233016D01*
X158424Y233048D01*
X158472Y233086D01*
X158526Y233124D01*
X158591Y233161D01*
X158655Y233199D01*
X158730Y233237D01*
X158811Y233274D01*
X158897Y233307D01*
X158994Y233333D01*
X159091Y233355D01*
X159193Y233366D01*
X159301Y233371D01*
X159306D01*
X159311D01*
X159328D01*
X159349D01*
X159408Y233366D01*
X159484Y233355D01*
X159575Y233339D01*
X159672Y233317D01*
X159780Y233291D01*
X159887Y233247D01*
X159893D01*
X159898Y233242D01*
X159914Y233237D01*
X159936Y233226D01*
X159995Y233194D01*
X160070Y233151D01*
X160162Y233091D01*
X160264Y233021D01*
X160371Y232941D01*
X160490Y232839D01*
X160495Y232833D01*
X160506Y232828D01*
X160522Y232806D01*
X160549Y232785D01*
X160581Y232752D01*
X160619Y232715D01*
X160667Y232672D01*
X160716Y232618D01*
X160775Y232553D01*
X160839Y232484D01*
X160915Y232408D01*
X160990Y232322D01*
X161076Y232231D01*
X161162Y232128D01*
X161259Y232015D01*
X161361Y231897D01*
X161367Y231892D01*
X161383Y231875D01*
X161404Y231843D01*
X161437Y231811D01*
X161474Y231763D01*
X161517Y231714D01*
X161614Y231601D01*
X161716Y231483D01*
X161824Y231370D01*
X161872Y231316D01*
X161916Y231268D01*
X161959Y231225D01*
X161991Y231192D01*
X161996Y231187D01*
X162018Y231165D01*
X162050Y231138D01*
X162093Y231101D01*
X162141Y231058D01*
X162195Y231015D01*
X162314Y230929D01*
Y233377D01*
X162900D01*
Y230089D01*
D02*
G37*
G36*
X147200Y231305D02*
X143321D01*
X143332Y231294D01*
X143359Y231268D01*
X143396Y231219D01*
X143450Y231149D01*
X143515Y231068D01*
X143585Y230966D01*
X143660Y230853D01*
X143741Y230724D01*
Y230719D01*
X143751Y230708D01*
X143762Y230692D01*
X143773Y230665D01*
X143795Y230633D01*
X143811Y230595D01*
X143859Y230509D01*
X143907Y230412D01*
X143961Y230305D01*
X144010Y230192D01*
X144053Y230084D01*
X143466D01*
X143461Y230089D01*
X143456Y230105D01*
X143439Y230132D01*
X143423Y230170D01*
X143402Y230213D01*
X143369Y230267D01*
X143337Y230326D01*
X143305Y230385D01*
X143219Y230525D01*
X143117Y230676D01*
X143009Y230832D01*
X142885Y230977D01*
X142880Y230982D01*
X142869Y230993D01*
X142853Y231015D01*
X142826Y231042D01*
X142794Y231068D01*
X142762Y231106D01*
X142670Y231187D01*
X142573Y231278D01*
X142460Y231370D01*
X142342Y231451D01*
X142218Y231521D01*
Y231913D01*
X147200D01*
Y231305D01*
D02*
G37*
G36*
X160673Y502545D02*
X160753Y502540D01*
X160850Y502534D01*
X160952Y502529D01*
X161065Y502518D01*
X161178Y502508D01*
X161415Y502475D01*
X161646Y502427D01*
X161759Y502400D01*
X161862Y502368D01*
X161867D01*
X161883Y502357D01*
X161916Y502352D01*
X161948Y502335D01*
X161996Y502314D01*
X162045Y502292D01*
X162104Y502266D01*
X162168Y502233D01*
X162303Y502158D01*
X162437Y502066D01*
X162572Y501959D01*
X162631Y501894D01*
X162690Y501830D01*
X162696Y501824D01*
X162701Y501814D01*
X162717Y501792D01*
X162733Y501765D01*
X162755Y501733D01*
X162782Y501690D01*
X162809Y501641D01*
X162835Y501582D01*
X162862Y501523D01*
X162889Y501453D01*
X162911Y501383D01*
X162938Y501302D01*
X162954Y501216D01*
X162970Y501125D01*
X162975Y501033D01*
X162981Y500931D01*
Y500899D01*
X162975Y500861D01*
X162970Y500813D01*
X162965Y500754D01*
X162954Y500684D01*
X162938Y500608D01*
X162916Y500522D01*
X162889Y500436D01*
X162857Y500345D01*
X162814Y500248D01*
X162766Y500156D01*
X162706Y500065D01*
X162636Y499974D01*
X162561Y499888D01*
X162470Y499807D01*
X162464Y499801D01*
X162443Y499785D01*
X162405Y499764D01*
X162351Y499731D01*
X162281Y499694D01*
X162201Y499651D01*
X162098Y499608D01*
X161985Y499565D01*
X161851Y499516D01*
X161706Y499473D01*
X161539Y499430D01*
X161356Y499393D01*
X161157Y499360D01*
X160942Y499339D01*
X160705Y499323D01*
X160452Y499317D01*
X160441D01*
X160414D01*
X160366D01*
X160307Y499323D01*
X160231D01*
X160145Y499328D01*
X160049Y499333D01*
X159946Y499339D01*
X159833Y499349D01*
X159720Y499360D01*
X159484Y499393D01*
X159252Y499436D01*
X159139Y499463D01*
X159037Y499495D01*
X159032D01*
X159016Y499506D01*
X158983Y499516D01*
X158946Y499527D01*
X158903Y499549D01*
X158849Y499570D01*
X158795Y499597D01*
X158730Y499629D01*
X158596Y499705D01*
X158461Y499801D01*
X158327Y499909D01*
X158268Y499968D01*
X158209Y500033D01*
X158203Y500038D01*
X158198Y500049D01*
X158182Y500070D01*
X158166Y500097D01*
X158139Y500130D01*
X158117Y500173D01*
X158090Y500221D01*
X158063Y500280D01*
X158036Y500339D01*
X158010Y500409D01*
X157983Y500485D01*
X157961Y500560D01*
X157945Y500646D01*
X157929Y500738D01*
X157923Y500834D01*
X157918Y500931D01*
Y500996D01*
X157923Y501033D01*
X157929Y501071D01*
X157940Y501168D01*
X157956Y501276D01*
X157988Y501394D01*
X158026Y501512D01*
X158080Y501631D01*
Y501636D01*
X158085Y501647D01*
X158096Y501663D01*
X158112Y501684D01*
X158144Y501738D01*
X158198Y501808D01*
X158262Y501889D01*
X158343Y501970D01*
X158440Y502056D01*
X158548Y502131D01*
X158553D01*
X158564Y502142D01*
X158580Y502147D01*
X158601Y502163D01*
X158628Y502179D01*
X158666Y502201D01*
X158709Y502217D01*
X158752Y502244D01*
X158860Y502292D01*
X158983Y502341D01*
X159129Y502395D01*
X159285Y502438D01*
X159290D01*
X159306Y502443D01*
X159328Y502448D01*
X159365Y502454D01*
X159408Y502464D01*
X159462Y502475D01*
X159521Y502486D01*
X159591Y502497D01*
X159672Y502502D01*
X159758Y502513D01*
X159855Y502524D01*
X159957Y502534D01*
X160070Y502540D01*
X160188Y502545D01*
X160318Y502551D01*
X160452D01*
X160463D01*
X160490D01*
X160538D01*
X160597D01*
X160673Y502545D01*
D02*
G37*
G36*
Y498688D02*
X160753Y498682D01*
X160850Y498677D01*
X160952Y498672D01*
X161065Y498661D01*
X161178Y498650D01*
X161415Y498618D01*
X161646Y498569D01*
X161759Y498542D01*
X161862Y498510D01*
X161867D01*
X161883Y498499D01*
X161916Y498494D01*
X161948Y498478D01*
X161996Y498456D01*
X162045Y498435D01*
X162104Y498408D01*
X162168Y498376D01*
X162303Y498300D01*
X162437Y498209D01*
X162572Y498101D01*
X162631Y498037D01*
X162690Y497972D01*
X162696Y497967D01*
X162701Y497956D01*
X162717Y497935D01*
X162733Y497908D01*
X162755Y497875D01*
X162782Y497832D01*
X162809Y497784D01*
X162835Y497725D01*
X162862Y497666D01*
X162889Y497596D01*
X162911Y497526D01*
X162938Y497445D01*
X162954Y497359D01*
X162970Y497267D01*
X162975Y497176D01*
X162981Y497074D01*
Y497042D01*
X162975Y497004D01*
X162970Y496955D01*
X162965Y496896D01*
X162954Y496826D01*
X162938Y496751D01*
X162916Y496665D01*
X162889Y496579D01*
X162857Y496487D01*
X162814Y496390D01*
X162766Y496299D01*
X162706Y496208D01*
X162636Y496116D01*
X162561Y496030D01*
X162470Y495949D01*
X162464Y495944D01*
X162443Y495928D01*
X162405Y495906D01*
X162351Y495874D01*
X162281Y495836D01*
X162201Y495793D01*
X162098Y495750D01*
X161985Y495707D01*
X161851Y495659D01*
X161706Y495616D01*
X161539Y495573D01*
X161356Y495535D01*
X161157Y495503D01*
X160942Y495481D01*
X160705Y495465D01*
X160452Y495460D01*
X160441D01*
X160414D01*
X160366D01*
X160307Y495465D01*
X160231D01*
X160145Y495471D01*
X160049Y495476D01*
X159946Y495481D01*
X159833Y495492D01*
X159720Y495503D01*
X159484Y495535D01*
X159252Y495578D01*
X159139Y495605D01*
X159037Y495637D01*
X159032D01*
X159016Y495648D01*
X158983Y495659D01*
X158946Y495670D01*
X158903Y495691D01*
X158849Y495713D01*
X158795Y495740D01*
X158730Y495772D01*
X158596Y495847D01*
X158461Y495944D01*
X158327Y496052D01*
X158268Y496111D01*
X158209Y496175D01*
X158203Y496181D01*
X158198Y496192D01*
X158182Y496213D01*
X158166Y496240D01*
X158139Y496272D01*
X158117Y496315D01*
X158090Y496364D01*
X158063Y496423D01*
X158036Y496482D01*
X158010Y496552D01*
X157983Y496627D01*
X157961Y496703D01*
X157945Y496789D01*
X157929Y496880D01*
X157923Y496977D01*
X157918Y497074D01*
Y497138D01*
X157923Y497176D01*
X157929Y497214D01*
X157940Y497310D01*
X157956Y497418D01*
X157988Y497537D01*
X158026Y497655D01*
X158080Y497773D01*
Y497779D01*
X158085Y497789D01*
X158096Y497806D01*
X158112Y497827D01*
X158144Y497881D01*
X158198Y497951D01*
X158262Y498031D01*
X158343Y498112D01*
X158440Y498198D01*
X158548Y498274D01*
X158553D01*
X158564Y498284D01*
X158580Y498290D01*
X158601Y498306D01*
X158628Y498322D01*
X158666Y498344D01*
X158709Y498360D01*
X158752Y498386D01*
X158860Y498435D01*
X158983Y498483D01*
X159129Y498537D01*
X159285Y498580D01*
X159290D01*
X159306Y498586D01*
X159328Y498591D01*
X159365Y498596D01*
X159408Y498607D01*
X159462Y498618D01*
X159521Y498629D01*
X159591Y498639D01*
X159672Y498645D01*
X159758Y498656D01*
X159855Y498666D01*
X159957Y498677D01*
X160070Y498682D01*
X160188Y498688D01*
X160318Y498693D01*
X160452D01*
X160463D01*
X160490D01*
X160538D01*
X160597D01*
X160673Y498688D01*
D02*
G37*
G36*
X162900Y493286D02*
X159021D01*
X159032Y493275D01*
X159059Y493249D01*
X159096Y493200D01*
X159150Y493130D01*
X159215Y493049D01*
X159285Y492947D01*
X159360Y492834D01*
X159441Y492705D01*
Y492700D01*
X159451Y492689D01*
X159462Y492673D01*
X159473Y492646D01*
X159494Y492614D01*
X159511Y492576D01*
X159559Y492490D01*
X159607Y492393D01*
X159661Y492286D01*
X159710Y492173D01*
X159753Y492065D01*
X159166D01*
X159161Y492070D01*
X159155Y492087D01*
X159139Y492113D01*
X159123Y492151D01*
X159102Y492194D01*
X159069Y492248D01*
X159037Y492307D01*
X159005Y492366D01*
X158919Y492506D01*
X158817Y492657D01*
X158709Y492813D01*
X158585Y492958D01*
X158580Y492964D01*
X158569Y492974D01*
X158553Y492996D01*
X158526Y493023D01*
X158494Y493049D01*
X158461Y493087D01*
X158370Y493168D01*
X158273Y493259D01*
X158160Y493351D01*
X158042Y493432D01*
X157918Y493502D01*
Y493894D01*
X162900D01*
Y493286D01*
D02*
G37*
G36*
X144774Y499177D02*
X144854D01*
X144951Y499172D01*
X145053Y499167D01*
X145166Y499156D01*
X145285Y499145D01*
X145408Y499134D01*
X145661Y499097D01*
X145909Y499043D01*
X146022Y499011D01*
X146135Y498973D01*
X146140D01*
X146162Y498962D01*
X146189Y498951D01*
X146226Y498935D01*
X146275Y498914D01*
X146328Y498887D01*
X146388Y498855D01*
X146452Y498822D01*
X146587Y498736D01*
X146732Y498629D01*
X146866Y498505D01*
X146931Y498435D01*
X146990Y498360D01*
X146996Y498354D01*
X147001Y498344D01*
X147017Y498317D01*
X147033Y498290D01*
X147055Y498247D01*
X147082Y498204D01*
X147108Y498150D01*
X147135Y498085D01*
X147162Y498021D01*
X147189Y497945D01*
X147211Y497870D01*
X147238Y497784D01*
X147270Y497601D01*
X147275Y497504D01*
X147281Y497402D01*
Y497348D01*
X147275Y497305D01*
X147270Y497257D01*
X147265Y497197D01*
X147254Y497133D01*
X147238Y497063D01*
X147200Y496912D01*
X147173Y496837D01*
X147146Y496756D01*
X147108Y496676D01*
X147065Y496595D01*
X147017Y496520D01*
X146958Y496450D01*
X146952Y496444D01*
X146942Y496434D01*
X146926Y496417D01*
X146899Y496390D01*
X146866Y496364D01*
X146823Y496331D01*
X146775Y496294D01*
X146721Y496256D01*
X146662Y496218D01*
X146592Y496181D01*
X146517Y496148D01*
X146436Y496111D01*
X146350Y496078D01*
X146258Y496052D01*
X146156Y496030D01*
X146049Y496014D01*
X146000Y496600D01*
X146006D01*
X146016Y496606D01*
X146038D01*
X146070Y496617D01*
X146102Y496622D01*
X146140Y496633D01*
X146232Y496660D01*
X146328Y496697D01*
X146425Y496746D01*
X146517Y496810D01*
X146560Y496842D01*
X146597Y496880D01*
X146603Y496891D01*
X146624Y496918D01*
X146657Y496966D01*
X146689Y497025D01*
X146721Y497106D01*
X146754Y497197D01*
X146775Y497300D01*
X146780Y497418D01*
Y497467D01*
X146775Y497520D01*
X146764Y497585D01*
X146748Y497660D01*
X146727Y497741D01*
X146700Y497827D01*
X146657Y497908D01*
X146651Y497918D01*
X146635Y497945D01*
X146603Y497983D01*
X146565Y498031D01*
X146517Y498085D01*
X146458Y498144D01*
X146388Y498204D01*
X146312Y498257D01*
X146301Y498263D01*
X146275Y498279D01*
X146226Y498306D01*
X146156Y498338D01*
X146076Y498370D01*
X145979Y498408D01*
X145860Y498446D01*
X145731Y498483D01*
X145726D01*
X145715Y498489D01*
X145694Y498494D01*
X145667Y498499D01*
X145634Y498505D01*
X145597Y498510D01*
X145548Y498521D01*
X145500Y498532D01*
X145387Y498548D01*
X145263Y498559D01*
X145129Y498569D01*
X144989Y498575D01*
X144978D01*
X144957D01*
X144919D01*
X144870D01*
X144876Y498564D01*
X144892Y498559D01*
X144913Y498542D01*
X144967Y498499D01*
X145032Y498446D01*
X145107Y498370D01*
X145188Y498284D01*
X145263Y498187D01*
X145338Y498074D01*
Y498069D01*
X145344Y498058D01*
X145355Y498042D01*
X145365Y498021D01*
X145382Y497988D01*
X145392Y497956D01*
X145425Y497870D01*
X145462Y497768D01*
X145489Y497649D01*
X145511Y497520D01*
X145516Y497386D01*
Y497359D01*
X145511Y497327D01*
Y497284D01*
X145500Y497230D01*
X145494Y497171D01*
X145478Y497101D01*
X145462Y497025D01*
X145435Y496945D01*
X145408Y496864D01*
X145371Y496778D01*
X145328Y496692D01*
X145279Y496600D01*
X145220Y496514D01*
X145150Y496428D01*
X145075Y496348D01*
X145070Y496342D01*
X145053Y496331D01*
X145027Y496310D01*
X144994Y496283D01*
X144951Y496251D01*
X144897Y496213D01*
X144833Y496175D01*
X144757Y496138D01*
X144682Y496095D01*
X144591Y496057D01*
X144494Y496019D01*
X144392Y495987D01*
X144279Y495960D01*
X144155Y495939D01*
X144031Y495928D01*
X143897Y495923D01*
X143886D01*
X143864D01*
X143821Y495928D01*
X143773D01*
X143708Y495939D01*
X143633Y495944D01*
X143552Y495960D01*
X143461Y495976D01*
X143369Y496003D01*
X143267Y496030D01*
X143165Y496068D01*
X143068Y496111D01*
X142966Y496159D01*
X142864Y496218D01*
X142772Y496288D01*
X142681Y496364D01*
X142675Y496369D01*
X142659Y496385D01*
X142638Y496412D01*
X142611Y496444D01*
X142573Y496487D01*
X142535Y496541D01*
X142492Y496600D01*
X142449Y496670D01*
X142406Y496746D01*
X142363Y496832D01*
X142326Y496923D01*
X142288Y497020D01*
X142261Y497128D01*
X142240Y497241D01*
X142224Y497354D01*
X142218Y497477D01*
Y497526D01*
X142224Y497558D01*
Y497601D01*
X142234Y497649D01*
X142240Y497709D01*
X142250Y497768D01*
X142283Y497908D01*
X142331Y498053D01*
X142358Y498128D01*
X142396Y498209D01*
X142433Y498284D01*
X142482Y498360D01*
X142487Y498365D01*
X142492Y498376D01*
X142509Y498397D01*
X142530Y498424D01*
X142557Y498462D01*
X142589Y498499D01*
X142627Y498542D01*
X142670Y498586D01*
X142719Y498634D01*
X142778Y498688D01*
X142837Y498736D01*
X142901Y498790D01*
X142977Y498838D01*
X143052Y498887D01*
X143138Y498930D01*
X143224Y498973D01*
X143230D01*
X143246Y498984D01*
X143273Y498994D01*
X143316Y499005D01*
X143364Y499021D01*
X143423Y499038D01*
X143493Y499059D01*
X143579Y499081D01*
X143671Y499097D01*
X143773Y499118D01*
X143891Y499134D01*
X144015Y499151D01*
X144149Y499161D01*
X144295Y499172D01*
X144451Y499183D01*
X144618D01*
X144628D01*
X144661D01*
X144709D01*
X144774Y499177D01*
D02*
G37*
G36*
Y495320D02*
X144854D01*
X144951Y495315D01*
X145053Y495309D01*
X145166Y495298D01*
X145285Y495288D01*
X145408Y495277D01*
X145661Y495239D01*
X145909Y495185D01*
X146022Y495153D01*
X146135Y495116D01*
X146140D01*
X146162Y495105D01*
X146189Y495094D01*
X146226Y495078D01*
X146275Y495056D01*
X146328Y495029D01*
X146388Y494997D01*
X146452Y494965D01*
X146587Y494879D01*
X146732Y494771D01*
X146866Y494647D01*
X146931Y494578D01*
X146990Y494502D01*
X146996Y494497D01*
X147001Y494486D01*
X147017Y494459D01*
X147033Y494432D01*
X147055Y494389D01*
X147082Y494346D01*
X147108Y494292D01*
X147135Y494228D01*
X147162Y494163D01*
X147189Y494088D01*
X147211Y494013D01*
X147238Y493926D01*
X147270Y493744D01*
X147275Y493647D01*
X147281Y493544D01*
Y493491D01*
X147275Y493448D01*
X147270Y493399D01*
X147265Y493340D01*
X147254Y493275D01*
X147238Y493206D01*
X147200Y493055D01*
X147173Y492980D01*
X147146Y492899D01*
X147108Y492818D01*
X147065Y492737D01*
X147017Y492662D01*
X146958Y492592D01*
X146952Y492587D01*
X146942Y492576D01*
X146926Y492560D01*
X146899Y492533D01*
X146866Y492506D01*
X146823Y492474D01*
X146775Y492436D01*
X146721Y492399D01*
X146662Y492361D01*
X146592Y492323D01*
X146517Y492291D01*
X146436Y492253D01*
X146350Y492221D01*
X146258Y492194D01*
X146156Y492173D01*
X146049Y492157D01*
X146000Y492743D01*
X146006D01*
X146016Y492748D01*
X146038D01*
X146070Y492759D01*
X146102Y492764D01*
X146140Y492775D01*
X146232Y492802D01*
X146328Y492840D01*
X146425Y492888D01*
X146517Y492953D01*
X146560Y492985D01*
X146597Y493023D01*
X146603Y493033D01*
X146624Y493060D01*
X146657Y493109D01*
X146689Y493168D01*
X146721Y493249D01*
X146754Y493340D01*
X146775Y493442D01*
X146780Y493561D01*
Y493609D01*
X146775Y493663D01*
X146764Y493727D01*
X146748Y493803D01*
X146727Y493883D01*
X146700Y493969D01*
X146657Y494050D01*
X146651Y494061D01*
X146635Y494088D01*
X146603Y494126D01*
X146565Y494174D01*
X146517Y494228D01*
X146458Y494287D01*
X146388Y494346D01*
X146312Y494400D01*
X146301Y494405D01*
X146275Y494421D01*
X146226Y494448D01*
X146156Y494481D01*
X146076Y494513D01*
X145979Y494551D01*
X145860Y494588D01*
X145731Y494626D01*
X145726D01*
X145715Y494631D01*
X145694Y494637D01*
X145667Y494642D01*
X145634Y494647D01*
X145597Y494653D01*
X145548Y494663D01*
X145500Y494674D01*
X145387Y494690D01*
X145263Y494701D01*
X145129Y494712D01*
X144989Y494717D01*
X144978D01*
X144957D01*
X144919D01*
X144870D01*
X144876Y494707D01*
X144892Y494701D01*
X144913Y494685D01*
X144967Y494642D01*
X145032Y494588D01*
X145107Y494513D01*
X145188Y494427D01*
X145263Y494330D01*
X145338Y494217D01*
Y494212D01*
X145344Y494201D01*
X145355Y494185D01*
X145365Y494163D01*
X145382Y494131D01*
X145392Y494099D01*
X145425Y494013D01*
X145462Y493910D01*
X145489Y493792D01*
X145511Y493663D01*
X145516Y493528D01*
Y493502D01*
X145511Y493469D01*
Y493426D01*
X145500Y493372D01*
X145494Y493313D01*
X145478Y493243D01*
X145462Y493168D01*
X145435Y493087D01*
X145408Y493007D01*
X145371Y492920D01*
X145328Y492834D01*
X145279Y492743D01*
X145220Y492657D01*
X145150Y492571D01*
X145075Y492490D01*
X145070Y492485D01*
X145053Y492474D01*
X145027Y492452D01*
X144994Y492425D01*
X144951Y492393D01*
X144897Y492355D01*
X144833Y492318D01*
X144757Y492280D01*
X144682Y492237D01*
X144591Y492200D01*
X144494Y492162D01*
X144392Y492130D01*
X144279Y492103D01*
X144155Y492081D01*
X144031Y492070D01*
X143897Y492065D01*
X143886D01*
X143864D01*
X143821Y492070D01*
X143773D01*
X143708Y492081D01*
X143633Y492087D01*
X143552Y492103D01*
X143461Y492119D01*
X143369Y492146D01*
X143267Y492173D01*
X143165Y492210D01*
X143068Y492253D01*
X142966Y492302D01*
X142864Y492361D01*
X142772Y492431D01*
X142681Y492506D01*
X142675Y492512D01*
X142659Y492528D01*
X142638Y492555D01*
X142611Y492587D01*
X142573Y492630D01*
X142535Y492684D01*
X142492Y492743D01*
X142449Y492813D01*
X142406Y492888D01*
X142363Y492974D01*
X142326Y493066D01*
X142288Y493162D01*
X142261Y493270D01*
X142240Y493383D01*
X142224Y493496D01*
X142218Y493620D01*
Y493668D01*
X142224Y493701D01*
Y493744D01*
X142234Y493792D01*
X142240Y493851D01*
X142250Y493910D01*
X142283Y494050D01*
X142331Y494196D01*
X142358Y494271D01*
X142396Y494351D01*
X142433Y494427D01*
X142482Y494502D01*
X142487Y494508D01*
X142492Y494518D01*
X142509Y494540D01*
X142530Y494567D01*
X142557Y494604D01*
X142589Y494642D01*
X142627Y494685D01*
X142670Y494728D01*
X142719Y494776D01*
X142778Y494830D01*
X142837Y494879D01*
X142901Y494933D01*
X142977Y494981D01*
X143052Y495029D01*
X143138Y495072D01*
X143224Y495116D01*
X143230D01*
X143246Y495126D01*
X143273Y495137D01*
X143316Y495148D01*
X143364Y495164D01*
X143423Y495180D01*
X143493Y495201D01*
X143579Y495223D01*
X143671Y495239D01*
X143773Y495261D01*
X143891Y495277D01*
X144015Y495293D01*
X144149Y495304D01*
X144295Y495315D01*
X144451Y495325D01*
X144618D01*
X144628D01*
X144661D01*
X144709D01*
X144774Y495320D01*
D02*
G37*
G36*
X289800Y500112D02*
X289001Y499605D01*
X288997Y499600D01*
X288985Y499596D01*
X288968Y499584D01*
X288943Y499567D01*
X288914Y499550D01*
X288881Y499525D01*
X288806Y499475D01*
X288718Y499417D01*
X288631Y499359D01*
X288548Y499297D01*
X288473Y499238D01*
X288469D01*
X288465Y499230D01*
X288444Y499213D01*
X288411Y499189D01*
X288373Y499151D01*
X288332Y499114D01*
X288290Y499068D01*
X288248Y499022D01*
X288219Y498981D01*
X288215Y498976D01*
X288207Y498960D01*
X288194Y498939D01*
X288178Y498910D01*
X288161Y498872D01*
X288144Y498835D01*
X288128Y498793D01*
X288115Y498747D01*
Y498743D01*
X288111Y498731D01*
X288107Y498710D01*
X288103Y498681D01*
Y498639D01*
X288099Y498589D01*
X288094Y498531D01*
Y497878D01*
X289800D01*
Y497371D01*
X285960D01*
Y499155D01*
X285964Y499201D01*
Y499247D01*
X285969Y499301D01*
X285973Y499363D01*
X285985Y499488D01*
X286006Y499617D01*
X286031Y499742D01*
X286048Y499796D01*
X286064Y499850D01*
Y499854D01*
X286069Y499862D01*
X286077Y499875D01*
X286085Y499896D01*
X286110Y499946D01*
X286147Y500004D01*
X286197Y500075D01*
X286264Y500145D01*
X286339Y500216D01*
X286430Y500278D01*
X286435D01*
X286443Y500287D01*
X286455Y500295D01*
X286476Y500303D01*
X286501Y500316D01*
X286530Y500328D01*
X286563Y500345D01*
X286601Y500362D01*
X286688Y500391D01*
X286784Y500416D01*
X286892Y500432D01*
X287009Y500441D01*
X287013D01*
X287025D01*
X287050D01*
X287075Y500436D01*
X287113Y500432D01*
X287154Y500428D01*
X287200Y500420D01*
X287250Y500407D01*
X287358Y500374D01*
X287416Y500353D01*
X287475Y500328D01*
X287533Y500299D01*
X287591Y500262D01*
X287645Y500220D01*
X287699Y500174D01*
X287703Y500170D01*
X287712Y500162D01*
X287724Y500145D01*
X287745Y500125D01*
X287766Y500095D01*
X287791Y500062D01*
X287820Y500021D01*
X287849Y499971D01*
X287878Y499917D01*
X287907Y499858D01*
X287936Y499792D01*
X287965Y499717D01*
X287990Y499638D01*
X288015Y499550D01*
X288036Y499455D01*
X288053Y499355D01*
Y499359D01*
X288057Y499363D01*
X288069Y499388D01*
X288090Y499426D01*
X288115Y499471D01*
X288144Y499521D01*
X288173Y499571D01*
X288211Y499621D01*
X288244Y499663D01*
X288248Y499667D01*
X288252Y499671D01*
X288265Y499684D01*
X288282Y499700D01*
X288302Y499721D01*
X288327Y499746D01*
X288386Y499800D01*
X288460Y499862D01*
X288548Y499933D01*
X288648Y500008D01*
X288756Y500083D01*
X289800Y500748D01*
Y500112D01*
D02*
G37*
G36*
Y495960D02*
X285960D01*
Y496468D01*
X289800D01*
Y495960D01*
D02*
G37*
G36*
X287974Y495170D02*
X288019D01*
X288069Y495166D01*
X288123Y495162D01*
X288244Y495149D01*
X288373Y495128D01*
X288506Y495103D01*
X288639Y495070D01*
X288644D01*
X288656Y495066D01*
X288673Y495058D01*
X288693Y495053D01*
X288723Y495041D01*
X288756Y495028D01*
X288835Y494999D01*
X288922Y494962D01*
X289018Y494916D01*
X289109Y494866D01*
X289197Y494808D01*
X289201D01*
X289205Y494800D01*
X289218Y494791D01*
X289234Y494779D01*
X289272Y494750D01*
X289322Y494704D01*
X289380Y494654D01*
X289438Y494596D01*
X289492Y494529D01*
X289546Y494459D01*
Y494454D01*
X289550Y494450D01*
X289567Y494425D01*
X289588Y494384D01*
X289617Y494330D01*
X289646Y494263D01*
X289679Y494184D01*
X289708Y494093D01*
X289738Y493997D01*
Y493993D01*
X289742Y493984D01*
Y493972D01*
X289746Y493951D01*
X289750Y493926D01*
X289758Y493893D01*
X289763Y493859D01*
X289767Y493822D01*
X289779Y493731D01*
X289792Y493627D01*
X289796Y493510D01*
X289800Y493385D01*
Y492000D01*
X285960D01*
Y493431D01*
X285964Y493473D01*
Y493523D01*
X285969Y493573D01*
X285973Y493685D01*
X285985Y493797D01*
X285998Y493909D01*
X286010Y493959D01*
X286019Y494005D01*
Y494009D01*
X286023Y494022D01*
X286027Y494038D01*
X286035Y494059D01*
X286044Y494088D01*
X286052Y494122D01*
X286081Y494201D01*
X286118Y494288D01*
X286164Y494380D01*
X286222Y494475D01*
X286293Y494567D01*
X286297Y494571D01*
X286306Y494579D01*
X286318Y494596D01*
X286339Y494617D01*
X286364Y494642D01*
X286397Y494671D01*
X286430Y494704D01*
X286472Y494737D01*
X286518Y494775D01*
X286568Y494812D01*
X286622Y494850D01*
X286680Y494887D01*
X286809Y494958D01*
X286950Y495020D01*
X286955D01*
X286967Y495028D01*
X286992Y495033D01*
X287021Y495045D01*
X287059Y495058D01*
X287104Y495070D01*
X287154Y495083D01*
X287212Y495099D01*
X287279Y495112D01*
X287350Y495124D01*
X287425Y495137D01*
X287504Y495149D01*
X287587Y495162D01*
X287674Y495166D01*
X287861Y495174D01*
X287866D01*
X287882D01*
X287903D01*
X287936D01*
X287974Y495170D01*
D02*
G37*
G36*
X219800Y427061D02*
X216788Y425048D01*
X219800D01*
Y424561D01*
X215960D01*
Y425081D01*
X218976Y427099D01*
X215960D01*
Y427585D01*
X219800D01*
Y427061D01*
D02*
G37*
G36*
Y421000D02*
X215960D01*
Y423779D01*
X216414D01*
Y421508D01*
X217587D01*
Y423633D01*
X218040D01*
Y421508D01*
X219347D01*
Y423866D01*
X219800D01*
Y421000D01*
D02*
G37*
G36*
X224340Y229869D02*
X224336Y229827D01*
Y229777D01*
X224331Y229728D01*
X224327Y229615D01*
X224315Y229503D01*
X224302Y229391D01*
X224290Y229341D01*
X224281Y229295D01*
Y229291D01*
X224277Y229278D01*
X224273Y229262D01*
X224265Y229241D01*
X224256Y229212D01*
X224248Y229178D01*
X224219Y229099D01*
X224182Y229012D01*
X224136Y228921D01*
X224078Y228825D01*
X224007Y228733D01*
X224003Y228729D01*
X223994Y228721D01*
X223982Y228704D01*
X223961Y228683D01*
X223936Y228658D01*
X223903Y228629D01*
X223870Y228596D01*
X223828Y228563D01*
X223782Y228525D01*
X223732Y228488D01*
X223678Y228450D01*
X223620Y228413D01*
X223491Y228342D01*
X223350Y228280D01*
X223345D01*
X223333Y228272D01*
X223308Y228267D01*
X223279Y228255D01*
X223241Y228242D01*
X223196Y228230D01*
X223146Y228217D01*
X223088Y228201D01*
X223021Y228188D01*
X222950Y228176D01*
X222875Y228163D01*
X222796Y228151D01*
X222713Y228138D01*
X222626Y228134D01*
X222439Y228126D01*
X222434D01*
X222418D01*
X222397D01*
X222364D01*
X222326Y228130D01*
X222281D01*
X222231Y228134D01*
X222177Y228138D01*
X222056Y228151D01*
X221927Y228172D01*
X221794Y228197D01*
X221661Y228230D01*
X221656D01*
X221644Y228234D01*
X221627Y228242D01*
X221607Y228247D01*
X221577Y228259D01*
X221544Y228272D01*
X221465Y228301D01*
X221378Y228338D01*
X221282Y228384D01*
X221191Y228434D01*
X221103Y228492D01*
X221099D01*
X221095Y228500D01*
X221082Y228509D01*
X221066Y228521D01*
X221028Y228550D01*
X220978Y228596D01*
X220920Y228646D01*
X220862Y228704D01*
X220808Y228771D01*
X220754Y228841D01*
Y228846D01*
X220750Y228850D01*
X220733Y228875D01*
X220712Y228916D01*
X220683Y228970D01*
X220654Y229037D01*
X220621Y229116D01*
X220591Y229207D01*
X220562Y229303D01*
Y229307D01*
X220558Y229316D01*
Y229328D01*
X220554Y229349D01*
X220550Y229374D01*
X220542Y229407D01*
X220537Y229440D01*
X220533Y229478D01*
X220521Y229569D01*
X220508Y229673D01*
X220504Y229790D01*
X220500Y229915D01*
Y231300D01*
X224340D01*
Y229869D01*
D02*
G37*
G36*
Y226832D02*
X220500D01*
Y227340D01*
X224340D01*
Y226832D01*
D02*
G37*
G36*
Y224145D02*
X224336Y224099D01*
Y224053D01*
X224331Y223999D01*
X224327Y223937D01*
X224315Y223812D01*
X224294Y223683D01*
X224269Y223558D01*
X224252Y223504D01*
X224236Y223450D01*
Y223446D01*
X224232Y223438D01*
X224223Y223425D01*
X224215Y223404D01*
X224190Y223354D01*
X224152Y223296D01*
X224103Y223225D01*
X224036Y223155D01*
X223961Y223084D01*
X223870Y223022D01*
X223865D01*
X223857Y223013D01*
X223845Y223005D01*
X223824Y222997D01*
X223799Y222984D01*
X223770Y222972D01*
X223737Y222955D01*
X223699Y222938D01*
X223612Y222909D01*
X223516Y222884D01*
X223408Y222868D01*
X223291Y222859D01*
X223287D01*
X223275D01*
X223250D01*
X223225Y222864D01*
X223187Y222868D01*
X223146Y222872D01*
X223100Y222880D01*
X223050Y222893D01*
X222942Y222926D01*
X222884Y222947D01*
X222825Y222972D01*
X222767Y223001D01*
X222709Y223038D01*
X222655Y223080D01*
X222601Y223126D01*
X222597Y223130D01*
X222588Y223138D01*
X222576Y223155D01*
X222555Y223176D01*
X222534Y223205D01*
X222509Y223238D01*
X222480Y223280D01*
X222451Y223329D01*
X222422Y223383D01*
X222393Y223442D01*
X222364Y223508D01*
X222335Y223583D01*
X222310Y223662D01*
X222285Y223750D01*
X222264Y223845D01*
X222247Y223945D01*
Y223941D01*
X222243Y223937D01*
X222231Y223912D01*
X222210Y223874D01*
X222185Y223829D01*
X222156Y223779D01*
X222127Y223729D01*
X222089Y223679D01*
X222056Y223637D01*
X222052Y223633D01*
X222047Y223629D01*
X222035Y223617D01*
X222018Y223600D01*
X221998Y223579D01*
X221973Y223554D01*
X221914Y223500D01*
X221839Y223438D01*
X221752Y223367D01*
X221652Y223292D01*
X221544Y223217D01*
X220500Y222551D01*
Y223188D01*
X221299Y223695D01*
X221303Y223700D01*
X221315Y223704D01*
X221332Y223716D01*
X221357Y223733D01*
X221386Y223750D01*
X221419Y223775D01*
X221494Y223825D01*
X221582Y223883D01*
X221669Y223941D01*
X221752Y224003D01*
X221827Y224062D01*
X221831D01*
X221835Y224070D01*
X221856Y224087D01*
X221889Y224112D01*
X221927Y224149D01*
X221969Y224186D01*
X222010Y224232D01*
X222052Y224278D01*
X222081Y224320D01*
X222085Y224324D01*
X222093Y224340D01*
X222106Y224361D01*
X222122Y224390D01*
X222139Y224428D01*
X222156Y224465D01*
X222172Y224507D01*
X222185Y224552D01*
Y224557D01*
X222189Y224569D01*
X222193Y224590D01*
X222197Y224619D01*
Y224661D01*
X222201Y224711D01*
X222206Y224769D01*
Y225422D01*
X220500D01*
Y225929D01*
X224340D01*
Y224145D01*
D02*
G37*
G36*
X294340Y299521D02*
X293886D01*
Y301793D01*
X292713D01*
Y299667D01*
X292260D01*
Y301793D01*
X290953D01*
Y299434D01*
X290500D01*
Y302300D01*
X294340D01*
Y299521D01*
D02*
G37*
G36*
Y298219D02*
X291324Y296201D01*
X294340D01*
Y295715D01*
X290500D01*
Y296239D01*
X293512Y298252D01*
X290500D01*
Y298739D01*
X294340D01*
Y298219D01*
D02*
G37*
%LPC*%
G36*
X160452Y501927D02*
X160447D01*
X160436D01*
X160420D01*
X160398D01*
X160371D01*
X160339D01*
X160253Y501921D01*
X160156Y501916D01*
X160043Y501910D01*
X159920Y501905D01*
X159790Y501889D01*
X159516Y501857D01*
X159381Y501830D01*
X159252Y501803D01*
X159129Y501770D01*
X159010Y501733D01*
X158913Y501690D01*
X158827Y501636D01*
X158822Y501631D01*
X158811Y501625D01*
X158790Y501609D01*
X158763Y501588D01*
X158736Y501555D01*
X158698Y501523D01*
X158661Y501485D01*
X158623Y501442D01*
X158553Y501340D01*
X158488Y501216D01*
X158461Y501152D01*
X158440Y501077D01*
X158429Y501007D01*
X158424Y500926D01*
Y500888D01*
X158429Y500856D01*
X158435Y500824D01*
X158440Y500781D01*
X158467Y500684D01*
X158510Y500576D01*
X158537Y500522D01*
X158574Y500463D01*
X158612Y500409D01*
X158661Y500356D01*
X158714Y500302D01*
X158779Y500253D01*
X158784Y500248D01*
X158800Y500243D01*
X158827Y500226D01*
X158870Y500205D01*
X158924Y500183D01*
X158989Y500156D01*
X159064Y500124D01*
X159161Y500097D01*
X159268Y500070D01*
X159387Y500038D01*
X159527Y500011D01*
X159677Y499990D01*
X159844Y499968D01*
X160032Y499958D01*
X160231Y499947D01*
X160452Y499941D01*
X160458D01*
X160468D01*
X160484D01*
X160506D01*
X160533D01*
X160571D01*
X160651Y499947D01*
X160748Y499952D01*
X160861Y499958D01*
X160985Y499963D01*
X161114Y499979D01*
X161388Y500011D01*
X161523Y500033D01*
X161657Y500060D01*
X161781Y500092D01*
X161894Y500135D01*
X161996Y500178D01*
X162082Y500226D01*
X162088Y500232D01*
X162098Y500237D01*
X162120Y500253D01*
X162147Y500280D01*
X162174Y500307D01*
X162206Y500339D01*
X162281Y500420D01*
X162357Y500522D01*
X162416Y500646D01*
X162443Y500711D01*
X162464Y500781D01*
X162475Y500856D01*
X162480Y500931D01*
Y500947D01*
X162475Y500974D01*
Y501001D01*
X162470Y501039D01*
X162459Y501082D01*
X162432Y501179D01*
X162410Y501232D01*
X162383Y501286D01*
X162351Y501345D01*
X162308Y501405D01*
X162265Y501464D01*
X162211Y501523D01*
X162147Y501582D01*
X162077Y501636D01*
X162072Y501641D01*
X162055Y501647D01*
X162034Y501663D01*
X161996Y501679D01*
X161948Y501706D01*
X161883Y501727D01*
X161808Y501754D01*
X161722Y501781D01*
X161620Y501808D01*
X161501Y501835D01*
X161372Y501862D01*
X161221Y501884D01*
X161055Y501900D01*
X160872Y501916D01*
X160673Y501921D01*
X160452Y501927D01*
D02*
G37*
G36*
Y498069D02*
X160447D01*
X160436D01*
X160420D01*
X160398D01*
X160371D01*
X160339D01*
X160253Y498064D01*
X160156Y498058D01*
X160043Y498053D01*
X159920Y498048D01*
X159790Y498031D01*
X159516Y497999D01*
X159381Y497972D01*
X159252Y497945D01*
X159129Y497913D01*
X159010Y497875D01*
X158913Y497832D01*
X158827Y497779D01*
X158822Y497773D01*
X158811Y497768D01*
X158790Y497752D01*
X158763Y497730D01*
X158736Y497698D01*
X158698Y497666D01*
X158661Y497628D01*
X158623Y497585D01*
X158553Y497483D01*
X158488Y497359D01*
X158461Y497294D01*
X158440Y497219D01*
X158429Y497149D01*
X158424Y497068D01*
Y497031D01*
X158429Y496999D01*
X158435Y496966D01*
X158440Y496923D01*
X158467Y496826D01*
X158510Y496719D01*
X158537Y496665D01*
X158574Y496606D01*
X158612Y496552D01*
X158661Y496498D01*
X158714Y496444D01*
X158779Y496396D01*
X158784Y496390D01*
X158800Y496385D01*
X158827Y496369D01*
X158870Y496348D01*
X158924Y496326D01*
X158989Y496299D01*
X159064Y496267D01*
X159161Y496240D01*
X159268Y496213D01*
X159387Y496181D01*
X159527Y496154D01*
X159677Y496132D01*
X159844Y496111D01*
X160032Y496100D01*
X160231Y496089D01*
X160452Y496084D01*
X160458D01*
X160468D01*
X160484D01*
X160506D01*
X160533D01*
X160571D01*
X160651Y496089D01*
X160748Y496095D01*
X160861Y496100D01*
X160985Y496105D01*
X161114Y496122D01*
X161388Y496154D01*
X161523Y496175D01*
X161657Y496202D01*
X161781Y496235D01*
X161894Y496278D01*
X161996Y496321D01*
X162082Y496369D01*
X162088Y496374D01*
X162098Y496380D01*
X162120Y496396D01*
X162147Y496423D01*
X162174Y496450D01*
X162206Y496482D01*
X162281Y496563D01*
X162357Y496665D01*
X162416Y496789D01*
X162443Y496853D01*
X162464Y496923D01*
X162475Y496999D01*
X162480Y497074D01*
Y497090D01*
X162475Y497117D01*
Y497144D01*
X162470Y497181D01*
X162459Y497224D01*
X162432Y497321D01*
X162410Y497375D01*
X162383Y497429D01*
X162351Y497488D01*
X162308Y497547D01*
X162265Y497606D01*
X162211Y497666D01*
X162147Y497725D01*
X162077Y497779D01*
X162072Y497784D01*
X162055Y497789D01*
X162034Y497806D01*
X161996Y497822D01*
X161948Y497849D01*
X161883Y497870D01*
X161808Y497897D01*
X161722Y497924D01*
X161620Y497951D01*
X161501Y497978D01*
X161372Y498004D01*
X161221Y498026D01*
X161055Y498042D01*
X160872Y498058D01*
X160673Y498064D01*
X160452Y498069D01*
D02*
G37*
G36*
X143864Y498505D02*
X143859D01*
X143843D01*
X143816D01*
X143778Y498499D01*
X143735Y498494D01*
X143682Y498489D01*
X143628Y498483D01*
X143563Y498473D01*
X143434Y498435D01*
X143294Y498386D01*
X143224Y498354D01*
X143160Y498317D01*
X143095Y498274D01*
X143036Y498225D01*
X143031Y498220D01*
X143020Y498214D01*
X143009Y498198D01*
X142988Y498177D01*
X142966Y498150D01*
X142939Y498117D01*
X142880Y498037D01*
X142821Y497940D01*
X142772Y497822D01*
X142751Y497762D01*
X142735Y497692D01*
X142729Y497622D01*
X142724Y497553D01*
Y497515D01*
X142729Y497483D01*
X142735Y497450D01*
X142740Y497407D01*
X142767Y497310D01*
X142805Y497197D01*
X142831Y497138D01*
X142864Y497079D01*
X142901Y497020D01*
X142950Y496961D01*
X142998Y496902D01*
X143057Y496842D01*
X143063Y496837D01*
X143073Y496832D01*
X143090Y496815D01*
X143117Y496794D01*
X143149Y496772D01*
X143192Y496751D01*
X143235Y496724D01*
X143289Y496697D01*
X143348Y496665D01*
X143412Y496638D01*
X143482Y496617D01*
X143563Y496595D01*
X143730Y496557D01*
X143821Y496552D01*
X143918Y496547D01*
X143924D01*
X143940D01*
X143961D01*
X143999Y496552D01*
X144037Y496557D01*
X144085Y496563D01*
X144193Y496584D01*
X144316Y496617D01*
X144440Y496665D01*
X144505Y496697D01*
X144569Y496735D01*
X144628Y496778D01*
X144687Y496826D01*
X144693Y496832D01*
X144698Y496837D01*
X144714Y496853D01*
X144731Y496880D01*
X144752Y496907D01*
X144779Y496939D01*
X144806Y496977D01*
X144833Y497020D01*
X144887Y497128D01*
X144935Y497246D01*
X144967Y497386D01*
X144973Y497461D01*
X144978Y497537D01*
Y497579D01*
X144973Y497606D01*
X144967Y497644D01*
X144962Y497682D01*
X144940Y497779D01*
X144908Y497892D01*
X144854Y498004D01*
X144822Y498064D01*
X144784Y498123D01*
X144736Y498177D01*
X144687Y498231D01*
X144682Y498236D01*
X144671Y498241D01*
X144655Y498257D01*
X144634Y498274D01*
X144602Y498295D01*
X144564Y498317D01*
X144521Y498344D01*
X144472Y498370D01*
X144419Y498392D01*
X144354Y498419D01*
X144289Y498440D01*
X144214Y498462D01*
X144133Y498478D01*
X144053Y498494D01*
X143961Y498499D01*
X143864Y498505D01*
D02*
G37*
G36*
Y494647D02*
X143859D01*
X143843D01*
X143816D01*
X143778Y494642D01*
X143735Y494637D01*
X143682Y494631D01*
X143628Y494626D01*
X143563Y494615D01*
X143434Y494578D01*
X143294Y494529D01*
X143224Y494497D01*
X143160Y494459D01*
X143095Y494416D01*
X143036Y494368D01*
X143031Y494362D01*
X143020Y494357D01*
X143009Y494341D01*
X142988Y494319D01*
X142966Y494292D01*
X142939Y494260D01*
X142880Y494179D01*
X142821Y494082D01*
X142772Y493964D01*
X142751Y493905D01*
X142735Y493835D01*
X142729Y493765D01*
X142724Y493695D01*
Y493657D01*
X142729Y493625D01*
X142735Y493593D01*
X142740Y493550D01*
X142767Y493453D01*
X142805Y493340D01*
X142831Y493281D01*
X142864Y493222D01*
X142901Y493162D01*
X142950Y493103D01*
X142998Y493044D01*
X143057Y492985D01*
X143063Y492980D01*
X143073Y492974D01*
X143090Y492958D01*
X143117Y492937D01*
X143149Y492915D01*
X143192Y492894D01*
X143235Y492867D01*
X143289Y492840D01*
X143348Y492807D01*
X143412Y492780D01*
X143482Y492759D01*
X143563Y492737D01*
X143730Y492700D01*
X143821Y492695D01*
X143918Y492689D01*
X143924D01*
X143940D01*
X143961D01*
X143999Y492695D01*
X144037Y492700D01*
X144085Y492705D01*
X144193Y492727D01*
X144316Y492759D01*
X144440Y492807D01*
X144505Y492840D01*
X144569Y492877D01*
X144628Y492920D01*
X144687Y492969D01*
X144693Y492974D01*
X144698Y492980D01*
X144714Y492996D01*
X144731Y493023D01*
X144752Y493049D01*
X144779Y493082D01*
X144806Y493119D01*
X144833Y493162D01*
X144887Y493270D01*
X144935Y493389D01*
X144967Y493528D01*
X144973Y493604D01*
X144978Y493679D01*
Y493722D01*
X144973Y493749D01*
X144967Y493787D01*
X144962Y493824D01*
X144940Y493921D01*
X144908Y494034D01*
X144854Y494147D01*
X144822Y494206D01*
X144784Y494265D01*
X144736Y494319D01*
X144687Y494373D01*
X144682Y494378D01*
X144671Y494384D01*
X144655Y494400D01*
X144634Y494416D01*
X144602Y494438D01*
X144564Y494459D01*
X144521Y494486D01*
X144472Y494513D01*
X144419Y494534D01*
X144354Y494561D01*
X144289Y494583D01*
X144214Y494604D01*
X144133Y494621D01*
X144053Y494637D01*
X143961Y494642D01*
X143864Y494647D01*
D02*
G37*
G36*
X287009Y499917D02*
X287004D01*
X286996D01*
X286984D01*
X286963Y499912D01*
X286942D01*
X286913Y499908D01*
X286851Y499892D01*
X286780Y499867D01*
X286705Y499833D01*
X286634Y499783D01*
X286597Y499750D01*
X286563Y499717D01*
X286559Y499713D01*
X286555Y499709D01*
X286547Y499696D01*
X286534Y499679D01*
X286522Y499659D01*
X286505Y499629D01*
X286489Y499600D01*
X286472Y499563D01*
X286455Y499521D01*
X286443Y499475D01*
X286426Y499426D01*
X286414Y499371D01*
X286401Y499309D01*
X286393Y499243D01*
X286385Y499172D01*
Y497878D01*
X287653D01*
Y499026D01*
X287649Y499055D01*
Y499089D01*
X287645Y499168D01*
X287637Y499255D01*
X287624Y499347D01*
X287608Y499434D01*
X287583Y499513D01*
Y499517D01*
X287579Y499521D01*
X287570Y499546D01*
X287554Y499579D01*
X287529Y499625D01*
X287495Y499671D01*
X287458Y499721D01*
X287408Y499771D01*
X287354Y499813D01*
X287346Y499817D01*
X287325Y499829D01*
X287296Y499846D01*
X287250Y499867D01*
X287200Y499883D01*
X287142Y499900D01*
X287075Y499912D01*
X287009Y499917D01*
D02*
G37*
G36*
X287853Y494650D02*
X287845D01*
X287828D01*
X287795D01*
X287753Y494646D01*
X287703D01*
X287645Y494642D01*
X287583Y494633D01*
X287512Y494625D01*
X287362Y494600D01*
X287208Y494567D01*
X287063Y494517D01*
X286992Y494484D01*
X286930Y494450D01*
X286925Y494446D01*
X286917Y494442D01*
X286900Y494429D01*
X286876Y494413D01*
X286851Y494396D01*
X286821Y494371D01*
X286755Y494317D01*
X286680Y494246D01*
X286609Y494163D01*
X286543Y494072D01*
X286518Y494022D01*
X286493Y493968D01*
Y493963D01*
X286489Y493959D01*
X286485Y493947D01*
X286480Y493930D01*
X286476Y493905D01*
X286468Y493880D01*
X286459Y493847D01*
X286451Y493810D01*
X286447Y493768D01*
X286439Y493718D01*
X286430Y493664D01*
X286426Y493606D01*
X286422Y493539D01*
X286418Y493469D01*
X286414Y493394D01*
Y492508D01*
X289347D01*
Y493389D01*
X289342Y493423D01*
Y493460D01*
X289338Y493543D01*
X289330Y493639D01*
X289317Y493739D01*
X289301Y493835D01*
X289280Y493922D01*
Y493926D01*
X289276Y493930D01*
X289272Y493943D01*
X289267Y493959D01*
X289251Y493997D01*
X289230Y494047D01*
X289201Y494101D01*
X289168Y494159D01*
X289126Y494217D01*
X289080Y494267D01*
X289076Y494271D01*
X289072Y494276D01*
X289047Y494296D01*
X289005Y494330D01*
X288951Y494371D01*
X288881Y494413D01*
X288797Y494459D01*
X288702Y494504D01*
X288594Y494546D01*
X288589D01*
X288581Y494550D01*
X288564Y494554D01*
X288540Y494563D01*
X288510Y494571D01*
X288473Y494579D01*
X288431Y494588D01*
X288386Y494600D01*
X288336Y494608D01*
X288277Y494617D01*
X288219Y494625D01*
X288153Y494633D01*
X288011Y494646D01*
X287853Y494650D01*
D02*
G37*
G36*
X223886Y230792D02*
X220953D01*
Y229911D01*
X220958Y229877D01*
Y229840D01*
X220962Y229757D01*
X220970Y229661D01*
X220983Y229561D01*
X220999Y229465D01*
X221020Y229378D01*
Y229374D01*
X221024Y229370D01*
X221028Y229357D01*
X221033Y229341D01*
X221049Y229303D01*
X221070Y229253D01*
X221099Y229199D01*
X221132Y229141D01*
X221174Y229083D01*
X221220Y229033D01*
X221224Y229029D01*
X221228Y229025D01*
X221253Y229004D01*
X221295Y228970D01*
X221349Y228929D01*
X221419Y228887D01*
X221503Y228841D01*
X221598Y228796D01*
X221706Y228754D01*
X221711D01*
X221719Y228750D01*
X221736Y228746D01*
X221761Y228737D01*
X221790Y228729D01*
X221827Y228721D01*
X221869Y228713D01*
X221914Y228700D01*
X221964Y228692D01*
X222023Y228683D01*
X222081Y228675D01*
X222147Y228667D01*
X222289Y228654D01*
X222447Y228650D01*
X222455D01*
X222472D01*
X222505D01*
X222547Y228654D01*
X222597D01*
X222655Y228658D01*
X222717Y228667D01*
X222788Y228675D01*
X222938Y228700D01*
X223092Y228733D01*
X223237Y228783D01*
X223308Y228817D01*
X223370Y228850D01*
X223375Y228854D01*
X223383Y228858D01*
X223399Y228871D01*
X223425Y228887D01*
X223449Y228904D01*
X223479Y228929D01*
X223545Y228983D01*
X223620Y229054D01*
X223691Y229137D01*
X223757Y229228D01*
X223782Y229278D01*
X223807Y229332D01*
Y229337D01*
X223811Y229341D01*
X223815Y229353D01*
X223820Y229370D01*
X223824Y229395D01*
X223832Y229420D01*
X223840Y229453D01*
X223849Y229490D01*
X223853Y229532D01*
X223861Y229582D01*
X223870Y229636D01*
X223874Y229694D01*
X223878Y229761D01*
X223882Y229832D01*
X223886Y229906D01*
Y230792D01*
D02*
G37*
G36*
X223915Y225422D02*
X222647D01*
Y224274D01*
X222651Y224245D01*
Y224211D01*
X222655Y224132D01*
X222663Y224045D01*
X222676Y223953D01*
X222692Y223866D01*
X222717Y223787D01*
Y223783D01*
X222721Y223779D01*
X222730Y223754D01*
X222746Y223721D01*
X222771Y223675D01*
X222805Y223629D01*
X222842Y223579D01*
X222892Y223529D01*
X222946Y223487D01*
X222954Y223483D01*
X222975Y223471D01*
X223004Y223454D01*
X223050Y223433D01*
X223100Y223417D01*
X223158Y223400D01*
X223225Y223388D01*
X223291Y223383D01*
X223295D01*
X223304D01*
X223316D01*
X223337Y223388D01*
X223358D01*
X223387Y223392D01*
X223449Y223409D01*
X223520Y223433D01*
X223595Y223467D01*
X223666Y223517D01*
X223703Y223550D01*
X223737Y223583D01*
X223741Y223587D01*
X223745Y223591D01*
X223753Y223604D01*
X223766Y223621D01*
X223778Y223641D01*
X223795Y223671D01*
X223811Y223700D01*
X223828Y223737D01*
X223845Y223779D01*
X223857Y223825D01*
X223874Y223874D01*
X223886Y223928D01*
X223899Y223991D01*
X223907Y224057D01*
X223915Y224128D01*
Y225422D01*
D02*
G37*
%LPD*%
D10*
X136300Y171200D02*
Y206400D01*
X388100Y171200D02*
Y204100D01*
X136300Y172200D02*
X245504D01*
X275696D02*
X388100D01*
X136300D02*
X142300Y170200D01*
X136300Y172200D02*
X142300Y174200D01*
X382100D02*
X388100Y172200D01*
X382100Y170200D02*
X388100Y172200D01*
X95600Y515600D02*
X135600D01*
X95600Y206400D02*
X136300D01*
X96600Y374496D02*
Y515600D01*
Y206400D02*
Y344304D01*
X94600Y509600D02*
X96600Y515600D01*
X98600Y509600D01*
X96600Y206400D02*
X98600Y212400D01*
X94600D02*
X96600Y206400D01*
X191000Y218500D02*
Y222500D01*
X194000Y215500D02*
X198000D01*
X201000Y218500D02*
Y222500D01*
X194000Y225500D02*
X198000D01*
X184000D02*
X188000D01*
X181000Y218500D02*
Y222500D01*
X184000Y215500D02*
X188000D01*
X191000Y218500D02*
Y222500D01*
X356600Y234500D02*
X360600D01*
X363600Y237500D02*
Y241500D01*
X356600Y244500D02*
X360600D01*
X353600Y237500D02*
Y241500D01*
Y247500D02*
Y251500D01*
X356600Y244500D02*
X360600D01*
X363600Y247500D02*
Y251500D01*
X356600Y254500D02*
X360600D01*
X356600Y224500D02*
X360600D01*
X363600Y227500D02*
Y231500D01*
X356600Y234500D02*
X360600D01*
X353600Y227500D02*
Y231500D01*
X356600Y214400D02*
X360600D01*
X363600Y217400D02*
Y221400D01*
X356600Y224400D02*
X360600D01*
X353600Y217400D02*
Y221400D01*
X328200Y451400D02*
Y455400D01*
X331200Y448400D02*
X335200D01*
X338200Y451400D02*
Y455400D01*
X331200Y458400D02*
X335200D01*
X265800Y496600D02*
X269800D01*
X272800Y499600D02*
Y503600D01*
X265800Y506600D02*
X269800D01*
X262800Y499600D02*
Y503600D01*
X338200Y451100D02*
Y455100D01*
X341200Y448100D02*
X345200D01*
X348200Y451100D02*
Y455100D01*
X341200Y458100D02*
X345200D01*
X255800Y496600D02*
X259800D01*
X262800Y499600D02*
Y503600D01*
X255800Y506600D02*
X259800D01*
X252800Y499600D02*
Y503600D01*
X245800Y496600D02*
X249800D01*
X252800Y499600D02*
Y503600D01*
X245800Y506600D02*
X249800D01*
X242800Y499600D02*
Y503600D01*
X235800Y496600D02*
X239800D01*
X242800Y499600D02*
Y503600D01*
X235800Y506600D02*
X239800D01*
X232800Y499600D02*
Y503600D01*
X247500Y217700D02*
Y221700D01*
X240500Y224700D02*
X244500D01*
X237500Y217700D02*
Y221700D01*
X240500Y214700D02*
X244500D01*
X257500Y217700D02*
Y221700D01*
X250500Y224700D02*
X254500D01*
X247500Y217700D02*
Y221700D01*
X250500Y214700D02*
X254500D01*
X260500Y224700D02*
X264500D01*
X257500Y217700D02*
Y221700D01*
X260500Y214700D02*
X264500D01*
X267500Y217700D02*
Y221700D01*
X270500Y224700D02*
X274500D01*
X267500Y217700D02*
Y221700D01*
X270500Y214700D02*
X274500D01*
X277500Y217700D02*
Y221700D01*
X334700Y232398D02*
X335700Y233398D01*
X337699D01*
X338699Y232398D01*
Y231399D01*
X337699Y230399D01*
X336699D01*
X337699D01*
X338699Y229399D01*
Y228400D01*
X337699Y227400D01*
X335700D01*
X334700Y228400D01*
X340698Y231399D02*
X342697Y227400D01*
X344697Y231399D01*
X346696Y232398D02*
X347696Y233398D01*
X349695D01*
X350695Y232398D01*
Y231399D01*
X349695Y230399D01*
X348695D01*
X349695D01*
X350695Y229399D01*
Y228400D01*
X349695Y227400D01*
X347696D01*
X346696Y228400D01*
X204000Y217100D02*
X205999D01*
X205000D01*
Y223098D01*
X204000Y222098D01*
X212997Y217100D02*
X208998D01*
X212997Y221099D01*
Y222098D01*
X211997Y223098D01*
X209998D01*
X208998Y222098D01*
X214996Y223098D02*
Y219099D01*
X216996Y217100D01*
X218995Y219099D01*
Y223098D01*
X164999Y222098D02*
X163999Y223098D01*
X162000D01*
X161000Y222098D01*
Y218100D01*
X162000Y217100D01*
X163999D01*
X164999Y218100D01*
Y220099D01*
X162999D01*
X166998Y217100D02*
Y223098D01*
X170997Y217100D01*
Y223098D01*
X172996D02*
Y217100D01*
X175995D01*
X176995Y218100D01*
Y222098D01*
X175995Y223098D01*
X172996D01*
X343599Y244098D02*
X339600D01*
Y241099D01*
X341599Y242099D01*
X342599D01*
X343599Y241099D01*
Y239100D01*
X342599Y238100D01*
X340600D01*
X339600Y239100D01*
X345598Y242099D02*
X347597Y238100D01*
X349597Y242099D01*
X354050Y263948D02*
Y259949D01*
X356049Y257950D01*
X358049Y259949D01*
Y263948D01*
X364047Y262948D02*
X363047Y263948D01*
X361048D01*
X360048Y262948D01*
Y258950D01*
X361048Y257950D01*
X363047D01*
X364047Y258950D01*
X370045Y262948D02*
X369045Y263948D01*
X367046D01*
X366046Y262948D01*
Y258950D01*
X367046Y257950D01*
X369045D01*
X370045Y258950D01*
X337799Y220798D02*
X336799Y221798D01*
X334800D01*
X333800Y220798D01*
Y216800D01*
X334800Y215800D01*
X336799D01*
X337799Y216800D01*
Y218799D01*
X335799D01*
X339798Y215800D02*
Y221798D01*
X343797Y215800D01*
Y221798D01*
X345796D02*
Y215800D01*
X348795D01*
X349795Y216800D01*
Y220798D01*
X348795Y221798D01*
X345796D01*
X315700Y457498D02*
X319699D01*
X317699D01*
Y451500D01*
X321698Y457498D02*
X325697Y451500D01*
Y457498D02*
X321698Y451500D01*
X264700Y508800D02*
X266366D01*
X265533D01*
Y513798D01*
X264700Y512965D01*
X268865Y513798D02*
Y508800D01*
X271364D01*
X272198Y509633D01*
Y510466D01*
X271364Y511299D01*
X268865D01*
X271364D01*
X272198Y512132D01*
Y512965D01*
X271364Y513798D01*
X268865D01*
X351300Y451200D02*
Y457198D01*
X354299D01*
X355299Y456198D01*
Y454199D01*
X354299Y453199D01*
X351300D01*
X353299D02*
X355299Y451200D01*
X357298Y457198D02*
X361297Y451200D01*
Y457198D02*
X357298Y451200D01*
X254200Y508800D02*
X255866D01*
X255033D01*
Y513798D01*
X254200Y512965D01*
X258365Y508800D02*
Y512132D01*
X260031Y513798D01*
X261698Y512132D01*
Y508800D01*
Y511299D01*
X258365D01*
X246732Y508800D02*
X243400D01*
X246732Y512132D01*
Y512965D01*
X245899Y513798D01*
X244233D01*
X243400Y512965D01*
X248398Y508800D02*
Y512132D01*
X250064Y513798D01*
X251731Y512132D01*
Y508800D01*
Y511299D01*
X248398D01*
X234932Y508700D02*
X231600D01*
X234932Y512032D01*
Y512865D01*
X234099Y513698D01*
X232433D01*
X231600Y512865D01*
X236598Y513698D02*
Y508700D01*
X239098D01*
X239931Y509533D01*
Y510366D01*
X239098Y511199D01*
X236598D01*
X239098D01*
X239931Y512032D01*
Y512865D01*
X239098Y513698D01*
X236598D01*
X237000Y207900D02*
X238666D01*
X237833D01*
Y212898D01*
X237000Y212065D01*
X241165Y212898D02*
Y207900D01*
X243665D01*
X244498Y208733D01*
Y209566D01*
X243665Y210399D01*
X241165D01*
X243665D01*
X244498Y211232D01*
Y212065D01*
X243665Y212898D01*
X241165D01*
X247900Y207500D02*
X249566D01*
X248733D01*
Y212498D01*
X247900Y211665D01*
X252065Y207500D02*
Y210832D01*
X253731Y212498D01*
X255398Y210832D01*
Y207500D01*
Y209999D01*
X252065D01*
X261532Y207800D02*
X258200D01*
X261532Y211132D01*
Y211965D01*
X260699Y212798D01*
X259033D01*
X258200Y211965D01*
X263198Y207800D02*
Y211132D01*
X264864Y212798D01*
X266531Y211132D01*
Y207800D01*
Y210299D01*
X263198D01*
X272532Y207700D02*
X269200D01*
X272532Y211032D01*
Y211865D01*
X271699Y212698D01*
X270033D01*
X269200Y211865D01*
X274198Y212698D02*
Y207700D01*
X276698D01*
X277531Y208533D01*
Y209366D01*
X276698Y210199D01*
X274198D01*
X276698D01*
X277531Y211032D01*
Y211865D01*
X276698Y212698D01*
X274198D01*
X203352Y421850D02*
X208350D01*
X209350Y422850D01*
Y424849D01*
X208350Y425849D01*
X203352D01*
X209350Y431847D02*
Y427848D01*
X205351Y431847D01*
X204352D01*
X203352Y430847D01*
Y428848D01*
X204352Y427848D01*
X306948Y301450D02*
X301950D01*
X300950Y300450D01*
Y298451D01*
X301950Y297451D01*
X306948D01*
X300950Y295452D02*
Y293453D01*
Y294452D01*
X306948D01*
X305948Y295452D01*
D11*
X140267Y235478D02*
X164833D01*
Y490722D01*
X140267D02*
X164833D01*
X140267Y235478D02*
Y490722D01*
D12*
X214800Y421000D02*
Y427500D01*
X295500Y295800D02*
Y302300D01*
D13*
X212839Y430079D02*
Y489921D01*
Y430079D02*
X292761D01*
X212839Y489921D02*
X292761D01*
Y430079D02*
Y489921D01*
X297461Y233379D02*
Y293221D01*
X217539D02*
X297461D01*
X217539Y233379D02*
X297461D01*
X217539D02*
Y293221D01*
D14*
X251103Y174599D02*
X249104Y173599D01*
X247104Y171600D01*
Y169601D01*
X248104Y168601D01*
X250103D01*
X251103Y169601D01*
Y170600D01*
X250103Y171600D01*
X247104D01*
X253102Y173599D02*
X254102Y174599D01*
X256101D01*
X257101Y173599D01*
Y172600D01*
X256101Y171600D01*
X255102D01*
X256101D01*
X257101Y170600D01*
Y169601D01*
X256101Y168601D01*
X254102D01*
X253102Y169601D01*
X259101Y168601D02*
Y169601D01*
X260100D01*
Y168601D01*
X259101D01*
X264099Y169601D02*
X265099Y168601D01*
X267098D01*
X268098Y169601D01*
Y173599D01*
X267098Y174599D01*
X265099D01*
X264099Y173599D01*
Y172600D01*
X265099Y171600D01*
X268098D01*
X274096Y174599D02*
X272096Y173599D01*
X270097Y171600D01*
Y169601D01*
X271097Y168601D01*
X273096D01*
X274096Y169601D01*
Y170600D01*
X273096Y171600D01*
X270097D01*
X94201Y345904D02*
Y349903D01*
X95201D01*
X99199Y345904D01*
X100199D01*
X95201Y351902D02*
X94201Y352902D01*
Y354902D01*
X95201Y355901D01*
X96200D01*
X97200Y354902D01*
X98200Y355901D01*
X99199D01*
X100199Y354902D01*
Y352902D01*
X99199Y351902D01*
X98200D01*
X97200Y352902D01*
X96200Y351902D01*
X95201D01*
X97200Y352902D02*
Y354902D01*
X100199Y357901D02*
X99199D01*
Y358900D01*
X100199D01*
Y357901D01*
X94201Y366898D02*
Y362899D01*
X97200D01*
X96200Y364898D01*
Y365898D01*
X97200Y366898D01*
X99199D01*
X100199Y365898D01*
Y363898D01*
X99199Y362899D01*
X100199Y371896D02*
X94201D01*
X97200Y368897D01*
Y372896D01*
M02*
